<?xml version="1.0" standalone="no"?>
<!DOCTYPE svg PUBLIC "-//W3C//DTD SVG 20010904//EN"
 "http://www.w3.org/TR/2001/REC-SVG-20010904/DTD/svg10.dtd">
<svg version="1.0" xmlns="http://www.w3.org/2000/svg"
 width="1366.000000pt" height="2048.000000pt" viewBox="0 0 1366.000000 2048.000000"
 preserveAspectRatio="xMidYMid meet">
<metadata>
Created by potrace 1.16, written by Peter Selinger 2001-2019
</metadata>
<g transform="translate(0.000000,2048.000000) scale(0.100000,-0.100000)"
fill="#000000" stroke="none">
<path d="M81 20406 c-11 -13 -16 -14 -22 -4 -7 10 -9 10 -9 -2 0 -13 -2 -13
-11 0 -9 13 -10 12 -5 -3 3 -10 -3 -26 -16 -39 -15 -15 -17 -20 -5 -15 9 3 19
2 22 -3 4 -6 15 -10 26 -10 35 0 19 -16 -18 -17 -26 -1 -32 2 -22 9 12 8 12 9
-1 5 -8 -2 -16 -11 -18 -20 -2 -11 3 -15 17 -12 11 2 23 0 26 -6 4 -5 1 -9 -6
-9 -6 0 -9 -8 -6 -20 3 -11 1 -23 -4 -26 -5 -3 -9 -13 -8 -22 0 -11 4 -8 10 8
8 20 12 22 18 10 12 -22 6 -65 -9 -62 -15 3 -40 -16 -40 -31 0 -6 7 -2 16 9
13 16 15 16 10 2 -6 -21 2 -22 25 -5 21 16 30 56 18 81 -9 17 -7 17 9 -3 13
-16 21 -20 26 -12 4 6 14 11 22 11 21 0 7 -19 -23 -31 -21 -8 -23 -12 -13 -24
10 -12 7 -15 -14 -21 -14 -3 -26 -13 -26 -20 0 -10 -8 -13 -25 -10 -15 3 -23
1 -20 -5 4 -5 10 -7 15 -4 15 9 21 -14 10 -37 -9 -20 -9 -21 2 -5 7 10 19 26
26 35 11 15 12 14 3 -5 -14 -27 -14 -33 -1 -33 5 0 9 3 9 8 -3 18 2 32 11 32
6 0 10 3 10 8 0 4 -4 8 -10 8 -23 3 -24 6 -5 13 30 12 42 3 38 -27 -3 -23 -2
-24 6 -7 l8 20 5 -20 c4 -19 4 -19 10 3 3 12 2 20 -3 16 -5 -3 -9 -1 -9 5 0 5
6 12 13 15 8 4 7 5 -3 5 -38 -3 -40 1 -22 33 10 17 25 32 35 34 24 3 21 -14
-5 -35 l-21 -18 21 -5 c12 -4 24 -2 27 3 3 4 12 6 20 2 8 -3 15 0 15 5 0 6 -8
9 -19 7 -14 -3 -18 3 -17 26 1 16 4 29 9 29 4 0 7 5 7 12 0 6 -8 4 -19 -6 -19
-17 -20 -17 -30 3 -7 13 -8 22 -1 26 13 8 13 25 0 25 -6 0 -9 -5 -8 -11 2 -6
-3 -14 -11 -17 -10 -3 -12 0 -7 14 6 16 3 15 -17 -4 -21 -20 -25 -21 -37 -7
-7 8 -10 18 -7 22 4 3 2 12 -4 20 -6 7 -8 13 -3 13 14 0 31 -14 37 -30 3 -8 6
5 6 29 1 41 0 43 -24 37 -20 -5 -25 -3 -25 14 0 22 10 26 27 9 8 -8 11 -6 10
6 -1 10 4 20 12 23 8 2 11 0 8 -5 -3 -5 0 -10 8 -10 8 0 15 5 15 11 0 6 5 4
11 -4 9 -12 10 -12 5 3 -3 10 -6 21 -6 23 0 2 -5 4 -11 4 -5 0 -7 -4 -4 -10 3
-5 2 -10 -4 -10 -5 0 -11 5 -13 11 -2 7 -9 5 -17 -5z"/>
<path d="M9012 16811 c-7 -4 -13 -25 -16 -47 -2 -22 -8 -49 -14 -60 -9 -17
-22 -71 -24 -99 0 -5 3 -22 7 -36 6 -23 1 -32 -30 -60 -39 -36 -68 -82 -58
-93 4 -3 1 -6 -5 -6 -7 0 -12 -6 -12 -14 0 -8 -6 -21 -13 -28 -12 -11 -26 -50
-26 -68 0 -3 -7 -21 -15 -41 -8 -20 -13 -39 -9 -42 3 -3 -1 -13 -10 -21 -8 -8
-17 -12 -21 -9 -3 4 -6 0 -6 -8 -1 -32 -69 -87 -92 -73 -7 4 -8 3 -4 -4 4 -7
1 -12 -7 -12 -15 0 -27 -20 -27 -47 0 -8 -11 -24 -25 -35 -27 -21 -28 -36 -5
-55 13 -11 13 -12 0 -13 -12 0 -11 -4 4 -15 17 -13 17 -15 -9 -39 -24 -23 -50
-32 -77 -27 -10 1 -9 -18 1 -44 6 -14 3 -24 -8 -32 -13 -9 -14 -14 -3 -24 6
-7 12 -18 12 -24 0 -5 -5 -3 -10 5 -7 12 -9 10 -8 -6 2 -19 6 -20 30 -13 18 5
28 4 28 -3 0 -6 9 -3 19 6 27 24 60 7 54 -27 -5 -27 34 -117 51 -117 6 0 26
-13 44 -30 18 -16 28 -30 22 -30 -6 0 -8 -4 -5 -10 3 -5 2 -10 -3 -10 -12 0
-9 -40 6 -67 7 -13 11 -33 8 -46 -2 -14 5 -33 20 -50 l24 -28 26 26 c41 41 80
19 87 -48 3 -27 0 -37 -10 -37 -8 0 -12 4 -9 8 3 5 -1 9 -9 9 -8 0 -12 -4 -10
-8 3 -3 -5 -9 -16 -12 -12 -3 -18 -10 -15 -15 8 -13 -63 2 -99 22 -16 9 -25
16 -20 16 6 0 6 3 -1 8 -6 4 -24 33 -40 66 -16 32 -39 65 -51 73 -13 9 -20 19
-17 24 3 5 -3 13 -13 17 -13 5 -19 18 -20 39 -1 51 -39 122 -68 128 -14 3 -36
7 -49 10 -22 4 -43 37 -38 57 1 4 -6 17 -15 28 -23 27 -90 36 -127 16 -44 -23
-90 5 -79 48 3 12 5 30 4 41 0 10 16 38 35 61 29 36 40 42 67 41 17 -2 38 -6
46 -11 10 -7 12 -6 6 4 -6 10 -3 12 13 8 12 -4 25 -1 29 4 4 7 1 8 -7 3 -9 -5
-11 -4 -6 3 4 7 -3 14 -19 18 -14 3 -23 9 -20 12 3 3 -2 16 -11 30 -8 13 -14
29 -11 35 2 7 -4 20 -13 30 -17 17 -19 17 -39 -10 -34 -47 -54 -63 -73 -63
-11 0 -23 -11 -29 -27 -5 -15 -28 -42 -50 -61 -22 -19 -38 -40 -36 -46 3 -7
-1 -23 -9 -37 -7 -13 -13 -41 -14 -61 0 -20 -4 -39 -9 -42 -7 -5 -8 -30 -3
-73 1 -7 6 -13 12 -13 5 0 23 -14 39 -30 36 -38 31 -74 -13 -101 -32 -19 -34
-29 -11 -42 7 -4 16 -20 20 -36 6 -27 26 -43 73 -56 12 -4 20 -10 17 -14 -2
-5 6 -17 20 -27 13 -10 22 -21 19 -26 -3 -4 2 -8 10 -8 9 0 28 -25 44 -57 21
-44 37 -63 65 -76 20 -10 37 -25 37 -33 0 -21 2 -23 45 -68 47 -48 48 -73 4
-110 -17 -14 -29 -34 -29 -48 0 -13 -8 -35 -17 -48 -10 -14 -17 -27 -15 -30 1
-3 -3 -12 -10 -20 -7 -8 -14 -29 -16 -45 -2 -25 4 -37 32 -63 20 -18 36 -30
36 -26 0 4 8 0 18 -7 9 -7 14 -9 10 -5 -4 5 13 22 38 37 40 26 43 31 34 50 -9
16 -8 25 6 40 9 10 20 19 23 19 6 0 6 -58 1 -70 -1 -3 -2 -8 -1 -12 0 -5 -3
-8 -9 -8 -5 0 -7 -16 -5 -35 4 -25 1 -35 -9 -35 -8 0 -17 -7 -20 -16 -4 -9 -9
-14 -13 -11 -3 4 -12 2 -20 -4 -7 -6 -13 -9 -13 -5 0 3 -12 1 -26 -4 -17 -7
-31 -7 -42 0 -14 8 -14 9 -2 10 13 0 13 1 0 11 -13 9 -13 10 0 6 8 -2 14 -10
12 -16 -2 -13 14 -15 22 -3 3 5 -6 15 -20 22 -18 10 -21 16 -12 22 10 6 8 8
-4 8 -9 0 -20 -5 -23 -10 -4 -6 -12 -10 -18 -9 -25 3 -34 -1 -34 -16 0 -10 6
-14 15 -10 10 4 13 0 9 -14 -3 -15 4 -21 34 -31 22 -7 37 -15 35 -18 -16 -15
95 -72 152 -79 26 -3 53 -9 60 -15 6 -6 12 -7 12 -4 0 4 10 1 23 -6 12 -7 27
-12 32 -13 6 0 42 -4 80 -9 39 -4 87 -9 108 -11 50 -5 78 -36 75 -82 -1 -19
-5 -36 -9 -38 -3 -3 -5 -16 -4 -30 2 -14 -1 -25 -6 -25 -6 0 -7 -5 -4 -10 16
-26 -61 -57 -83 -34 -6 7 -9 27 -6 46 6 33 5 34 -63 64 -37 17 -86 32 -107 33
-22 1 -43 4 -47 7 -14 8 -59 -7 -59 -20 0 -7 -10 -12 -22 -11 -13 1 -29 -4
-36 -12 -7 -7 -22 -13 -33 -13 -11 0 -17 -4 -14 -10 10 -16 -58 1 -75 19 -9 9
-15 23 -15 31 1 8 -2 27 -6 42 -5 19 -3 31 7 39 29 24 4 79 -35 79 -24 0 -64
-39 -57 -56 2 -6 -1 -20 -8 -30 -7 -11 -11 -25 -10 -31 1 -7 2 -19 3 -27 0 -8
21 -23 45 -35 25 -11 47 -25 51 -31 3 -6 12 -7 18 -3 7 4 7 0 -1 -10 -8 -9
-11 -21 -7 -27 3 -5 1 -10 -5 -10 -6 0 -9 -4 -6 -9 4 -5 1 -11 -4 -13 -7 -2
-6 -9 2 -20 8 -11 30 -18 60 -20 28 -2 50 -8 53 -16 3 -8 0 -10 -7 -6 -8 5 -9
2 -5 -10 4 -9 3 -14 -2 -11 -5 3 -12 1 -16 -5 -4 -6 -11 -8 -16 -5 -5 4 -9 1
-9 -4 0 -6 -3 -10 -7 -10 -32 5 -42 -2 -34 -23 6 -16 4 -26 -6 -33 -13 -10
-13 -16 1 -48 8 -21 22 -40 29 -43 9 -3 13 -13 10 -25 -3 -11 0 -19 6 -19 7 0
10 4 7 9 -3 4 5 7 18 6 63 -7 88 -32 60 -60 -17 -16 -89 -21 -79 -5 3 6 -1 7
-9 4 -9 -3 -16 -2 -16 2 0 5 -14 9 -32 8 -37 -1 -63 -39 -38 -54 11 -7 8 -11
-13 -21 l-27 -12 20 -32 c26 -42 25 -45 -8 -45 -31 0 -75 27 -67 41 4 5 1 9
-5 9 -7 0 -9 7 -6 16 4 11 2 15 -8 11 -10 -4 -12 0 -9 14 4 15 1 18 -13 13
-18 -5 -18 -5 -2 9 17 13 16 15 -4 24 -20 9 -28 30 -29 76 0 9 -4 17 -9 17 -5
0 -17 3 -27 7 -16 6 -17 5 -3 -12 14 -17 13 -18 -3 -12 -11 4 -16 3 -12 -3 3
-6 1 -10 -5 -10 -6 0 -9 -4 -5 -10 3 -5 2 -17 -4 -27 -5 -10 -14 -47 -20 -83
-7 -36 -21 -93 -32 -128 -14 -42 -19 -75 -14 -98 5 -29 1 -42 -24 -76 -17 -23
-31 -46 -31 -51 0 -5 46 -56 103 -114 87 -90 113 -110 182 -143 103 -48 173
-106 228 -190 62 -93 177 -210 273 -281 91 -66 180 -157 201 -206 7 -18 13
-48 13 -66 0 -20 7 -40 17 -48 9 -8 28 -41 43 -75 17 -36 40 -70 58 -83 49
-34 75 -126 49 -168 -5 -7 -5 -13 -1 -13 4 0 -1 -9 -11 -21 -16 -16 -26 -19
-57 -14 -36 6 -42 4 -88 -39 -50 -46 -79 -63 -45 -26 16 18 16 20 2 20 -10 0
-17 5 -17 11 0 7 10 9 24 7 19 -4 35 6 72 43 67 68 71 103 6 56 -17 -13 -59
-35 -92 -48 -33 -13 -60 -26 -60 -30 0 -12 -115 2 -128 15 -12 12 -9 19 18 50
35 38 50 45 50 21 0 -7 8 -19 18 -24 16 -10 16 -10 -1 -11 -10 0 -16 -4 -12
-10 8 -13 35 -1 35 16 0 7 -10 23 -22 35 l-23 21 44 37 c25 20 66 58 92 84 31
32 52 46 61 41 7 -4 5 2 -5 13 -10 11 -17 24 -16 29 3 23 -14 52 -28 47 -10
-4 -11 -9 -4 -16 14 -14 14 -54 0 -62 -6 -4 -8 -13 -5 -21 5 -14 -9 -29 -17
-17 -2 5 -3 3 -1 -3 1 -7 -28 -36 -64 -65 -37 -29 -72 -60 -79 -69 -6 -9 -29
-29 -50 -45 l-38 -28 45 48 c25 26 69 65 98 86 32 24 52 47 52 59 0 22 -15 27
-24 8 -4 -10 -7 -10 -12 -1 -9 19 -121 -23 -127 -48 -4 -16 -2 -19 11 -13 9 3
36 11 60 17 23 6 42 14 42 19 0 4 5 8 10 8 21 0 8 -18 -30 -44 -22 -14 -48
-27 -57 -29 -10 -1 -36 -15 -58 -30 -22 -15 -43 -27 -47 -27 -10 0 -51 70 -44
77 3 3 10 -6 16 -21 14 -38 29 -29 52 32 19 52 100 138 119 126 5 -3 9 0 9 5
0 6 7 11 15 11 19 0 19 5 -1 35 -9 14 -12 25 -6 25 6 0 14 -5 17 -10 4 -6 15
-8 26 -5 14 5 17 2 13 -8 -7 -18 14 -97 25 -97 5 0 11 13 14 30 6 30 -24 120
-40 120 -5 0 -13 10 -18 22 -6 14 -21 23 -40 25 -46 4 -55 6 -55 10 0 8 26 28
40 31 8 2 18 8 22 14 7 13 -19 58 -34 58 -5 0 -2 -7 6 -16 23 -23 19 -30 -5
-8 -14 13 -18 25 -14 42 5 19 3 23 -9 19 -16 -6 -40 16 -29 26 3 4 1 7 -6 7
-8 0 -11 6 -7 16 3 8 2 12 -4 9 -9 -5 -12 1 -9 21 0 4 -11 14 -24 23 -14 9
-36 30 -49 46 -53 69 -92 104 -146 130 -31 16 -71 39 -89 52 -17 13 -37 23
-44 23 -6 0 -28 15 -49 33 -58 50 -140 97 -193 111 -26 7 -45 15 -41 18 3 4
-3 4 -13 2 -11 -3 -25 2 -32 10 -8 9 -24 16 -36 16 -13 0 -44 16 -69 35 -25
19 -68 46 -97 60 -28 15 -49 29 -46 31 3 3 33 -9 67 -26 35 -17 109 -53 166
-80 l104 -49 -45 56 c-25 30 -45 58 -45 62 0 4 -26 34 -59 67 -46 48 -57 64
-49 77 6 12 5 15 -5 11 -8 -3 -20 2 -27 10 -10 13 -8 19 11 36 l24 21 -22 -6
c-17 -5 -23 -2 -23 9 0 9 6 16 13 16 6 0 17 11 24 25 12 26 5 33 -14 14 -13
-13 -36 -2 -27 12 3 5 0 16 -6 24 -7 8 -10 24 -7 35 6 24 -5 26 -23 5 -7 -8
-18 -15 -24 -15 -7 0 -6 3 2 8 13 9 7 42 -7 42 -4 0 -13 12 -20 27 -9 20 -15
23 -23 15 -19 -19 -26 -14 -20 13 2 14 -1 32 -8 40 -11 14 -16 14 -38 -1 -18
-12 -26 -13 -32 -4 -4 6 -11 12 -16 13 -5 1 -8 5 -7 8 1 3 -18 6 -43 7 -50 0
-50 -14 -1 -23 36 -7 129 -85 102 -85 -9 0 -13 -4 -10 -10 9 -14 -8 -13 -23 2
-9 9 -12 8 -12 -5 0 -9 5 -17 11 -17 5 0 7 -4 4 -10 -9 -14 -35 -12 -35 3 0
19 -13 34 -36 41 -19 6 -24 -1 -43 -57 -11 -35 -21 -84 -21 -109 0 -43 -2 -46
-30 -50 -37 -6 -60 9 -65 42 -2 14 -10 47 -19 73 -14 43 -14 51 -1 71 14 21
13 25 -6 49 -11 15 -27 27 -34 27 -19 0 -24 -31 -8 -56 7 -11 16 -41 19 -65 5
-46 29 -169 40 -205 7 -27 -24 -37 -65 -21 -24 9 -30 18 -33 49 -2 21 1 40 7
42 5 2 2 5 -7 5 -11 1 -16 8 -13 21 2 11 -1 20 -7 20 -6 0 -8 16 -5 43 5 36 1
49 -26 89 -35 53 -42 56 -56 30 -13 -25 -9 -50 33 -176 45 -136 45 -140 5
-132 -17 3 -37 6 -44 6 -11 0 -31 39 -33 64 0 5 -4 12 -10 15 -11 7 -32 90
-32 125 0 13 -3 26 -7 28 -18 7 -54 90 -48 108 8 26 50 36 98 23 25 -7 51 -8
71 -2 17 5 45 9 62 9 29 0 34 4 48 45 8 25 13 52 10 60 -3 7 2 30 12 51 13 27
19 33 23 21 5 -12 12 -5 30 26 23 40 23 41 2 23 -11 -11 -21 -16 -21 -12 0 10
21 50 30 56 3 3 16 22 28 42 28 46 85 96 129 115 19 7 48 27 65 44 l31 29 -74
-5 c-55 -5 -78 -11 -92 -26 -19 -20 -32 -26 -22 -9 3 5 0 7 -8 4 -8 -3 -18 -1
-22 5 -12 20 -63 12 -79 -11 -9 -12 -16 -16 -16 -9 0 8 -6 11 -15 7 -17 -6
-21 9 -5 19 15 9 12 35 -3 29 -7 -2 -21 4 -31 15 -19 21 -10 33 27 35 11 1 21
9 23 19 2 13 -2 16 -17 12 -14 -5 -21 0 -29 19 -11 30 -19 32 -46 11 -16 -13
-16 -14 -1 -9 10 4 17 1 17 -6 0 -6 -9 -14 -20 -17 -11 -3 -17 -9 -14 -14 3
-5 -2 -6 -11 -3 -11 4 -14 13 -9 28 6 20 6 20 -13 3 -11 -9 -23 -14 -26 -10
-4 3 -17 -2 -29 -13 l-23 -19 20 23 c16 19 17 27 7 42 -13 21 -2 33 22 24 11
-4 21 4 33 25 10 17 23 29 30 27 7 -3 10 1 7 9 -3 8 6 25 20 38 14 13 22 28
18 32 -4 5 1 5 11 2 19 -7 25 17 6 28 -6 4 -8 12 -6 19 7 17 -49 8 -64 -10 -6
-8 -23 -14 -38 -14 -14 -1 -53 -7 -86 -15 -38 -9 -63 -11 -69 -5 -7 7 -6 10 2
10 7 0 12 7 12 15 0 12 7 14 27 9 23 -6 25 -4 20 15 -3 11 -1 24 4 27 5 3 9
14 9 25 0 10 9 27 20 36 11 10 20 23 20 31 0 7 4 10 10 7 5 -3 18 -1 27 4 16
9 15 11 -7 12 -14 1 -29 1 -33 0 -5 -1 -6 3 -2 9 3 5 1 10 -6 10 -9 0 -9 3 0
14 9 11 7 15 -7 18 -11 3 -19 0 -18 -6 0 -6 -3 -11 -9 -11 -5 0 -9 4 -7 8 1 4
-8 2 -20 -5 -44 -24 -128 -13 -111 15 4 6 8 23 9 36 2 14 8 27 13 29 5 2 7 10
4 18 -3 10 2 14 18 14 17 0 20 -3 10 -9 -10 -7 -11 -10 -1 -16 8 -5 18 -1 25
8 7 10 16 17 21 17 14 0 42 35 46 57 2 10 13 22 26 28 25 11 31 31 6 21 -8 -3
-13 -2 -9 3 7 12 -22 41 -41 41 -19 0 -29 -27 -17 -43 7 -8 6 -22 -3 -42 -7
-16 -13 -25 -14 -20 0 6 -10 -1 -21 -14 -26 -32 -36 -19 -11 16 10 15 22 46
26 68 4 22 15 48 24 58 14 16 14 17 0 12 -9 -4 -26 -30 -37 -58 -39 -95 -44
-102 -79 -101 -26 2 -30 -1 -23 -13 10 -18 3 -53 -10 -53 -18 0 -9 128 12 185
22 59 35 68 49 33 5 -13 9 -17 9 -10 1 6 6 12 11 12 6 0 9 -3 8 -7 -2 -5 2 -9
7 -11 6 -2 11 3 13 11 2 8 -12 18 -37 26 -48 14 -160 25 -121 12 21 -8 18 -9
-20 -9 -34 -1 -40 2 -25 8 19 8 19 9 -2 9 -13 1 -23 -2 -23 -7 0 -4 -18 -8
-39 -8 -58 -2 -93 -13 -85 -26 5 -7 2 -9 -9 -5 -9 3 -18 -1 -21 -9 -9 -23 -8
-24 11 -17 10 4 14 2 10 -5 -4 -6 -21 -13 -37 -17 -17 -4 -30 -13 -30 -21 0
-8 -4 -14 -10 -14 -5 0 -10 7 -10 15 0 16 -20 15 -84 -6 -36 -11 -39 -11 -31
1 10 16 -43 23 -76 10 -29 -12 -29 -13 -10 -27 26 -18 123 -166 186 -284 61
-115 59 -109 47 -109 -5 0 -14 12 -21 27 l-12 26 -32 -31 c-18 -16 -50 -42
-71 -56 -21 -14 -36 -26 -32 -26 4 0 2 -9 -4 -20 -9 -18 -8 -20 15 -20 15 0
23 4 20 10 -3 6 1 7 10 4 8 -4 23 0 33 7 16 12 16 12 1 -5 -15 -16 -137 -41
-148 -31 -2 3 3 5 12 5 19 0 21 8 8 29 -5 7 -14 10 -20 7 -6 -4 -9 -12 -6 -17
4 -5 1 -9 -4 -9 -6 0 -11 4 -11 9 0 5 -12 11 -27 14 -25 3 -23 4 13 11 41 8
41 9 31 36 -6 16 -14 27 -19 24 -4 -3 -5 -11 -2 -18 3 -8 1 -17 -4 -20 -5 -3
-8 6 -6 21 1 14 9 30 16 34 7 5 14 13 14 19 1 5 2 15 3 21 0 6 8 8 17 5 14 -5
16 -1 10 25 -7 37 15 36 24 -1 6 -25 40 -37 40 -15 0 7 -15 28 -32 46 l-33 33
25 6 c30 7 38 41 15 64 -15 15 -14 16 9 16 16 0 26 -6 26 -15 0 -8 5 -15 10
-15 6 0 10 -6 10 -13 0 -7 9 -29 20 -50 17 -31 17 -37 5 -37 -8 0 -15 -5 -15
-11 0 -6 8 -8 19 -4 14 4 21 0 26 -15 3 -11 11 -20 16 -20 13 0 13 -1 -37 96
-55 104 -86 154 -97 154 -5 0 -1 -10 7 -22 22 -31 20 -38 -11 -37 -16 0 -22 3
-15 6 14 6 16 33 2 33 -5 0 -10 -5 -10 -12 0 -6 -3 -8 -6 -5 -4 4 -1 13 6 22
11 13 10 14 -4 9 -11 -4 -15 -2 -11 8 4 9 -12 33 -39 62 -45 46 -74 60 -62 31
3 -8 4 -15 2 -15 -6 0 -38 52 -40 66 -1 7 -43 41 -94 75 -90 61 -92 63 -75 82
10 10 57 39 104 62 l85 43 18 64 c10 34 22 95 27 133 4 39 13 96 20 129 10 53
10 62 -10 98 -17 32 -21 58 -21 126 -1 117 -29 199 -136 382 -59 102 -173 233
-196 225 -8 -3 -21 1 -28 10 -12 14 -14 14 -30 0 -16 -14 -18 -14 -23 0 -4 8
-1 15 6 16 12 0 -20 17 -36 18 -11 1 8 -30 38 -61 14 -16 23 -28 20 -28 -4 0
8 -13 26 -29 20 -19 29 -34 24 -42 -6 -9 -3 -11 8 -6 11 4 27 -9 53 -46 l38
-52 -36 30 c-19 17 -33 33 -31 38 2 4 -3 7 -11 7 -9 0 -16 -5 -16 -11 0 -5 -5
-7 -10 -4 -6 4 -8 11 -5 16 3 5 -1 6 -10 2 -9 -3 -13 -9 -8 -12 17 -13 10 -28
-18 -38 -27 -11 -29 -10 -17 4 14 17 11 16 -35 -6 -29 -15 -48 -8 -29 11 9 9
12 9 12 0 0 -6 7 -9 17 -5 14 5 13 8 -6 15 -18 6 -27 3 -43 -14 -11 -13 -17
-18 -14 -11 4 6 2 15 -4 18 -6 4 -9 1 -8 -5 2 -7 -7 -16 -20 -21 -16 -6 -21
-5 -16 2 4 8 1 8 -12 2 -11 -5 -66 -11 -124 -12 -58 -1 -136 -7 -174 -12 -38
-5 -72 -6 -75 -1 -3 5 -13 12 -21 15 -8 4 -33 19 -55 32 -22 14 -55 33 -74 41
-27 12 -31 18 -20 26 10 7 5 8 -16 3 -29 -6 -29 -6 -10 10 11 9 15 14 9 11
-12 -6 -27 18 -17 27 2 3 19 -1 37 -8 30 -13 36 -12 72 10 25 15 44 20 54 15
16 -8 53 11 50 26 -1 5 4 10 11 13 7 2 9 -1 4 -9 -4 -7 4 -4 19 5 22 15 29 15
43 4 11 -10 14 -10 9 -1 -4 7 -1 12 9 12 9 0 13 -4 10 -10 -3 -5 -1 -10 4 -10
6 0 11 4 11 9 0 15 -22 26 -45 23 -26 -3 49 36 77 40 12 2 24 10 26 18 5 13 3
13 -11 2 -9 -8 -22 -10 -28 -6 -9 5 -9 10 2 18 8 6 14 23 15 38 l0 28 -22 -21
c-16 -15 -29 -19 -41 -14 -10 5 -29 9 -43 11 -19 2 -15 -2 15 -16 l40 -19 -40
3 c-22 2 -44 4 -48 5 -5 1 -6 5 -3 10 6 10 -19 9 -29 -1 -9 -8 56 -29 68 -21
6 4 7 1 2 -7 -6 -10 -1 -12 21 -7 16 3 23 4 16 1 -6 -3 -10 -9 -7 -14 3 -4 -4
-6 -15 -3 -12 3 -20 0 -20 -6 0 -7 -4 -10 -9 -6 -5 3 -12 1 -16 -5 -4 -6 -11
-8 -16 -4 -15 9 0 24 24 25 20 0 20 1 3 8 -13 5 -26 0 -43 -16 -14 -14 -28
-21 -36 -17 -8 5 -7 2 2 -9 12 -15 12 -17 -1 -12 -8 3 -21 -1 -28 -10 -7 -8
-19 -15 -26 -15 -8 0 -14 -4 -14 -8 0 -5 -11 -14 -25 -20 -32 -15 -35 -15 -35
-1 0 15 62 75 74 71 5 -2 19 6 31 18 12 11 24 18 27 15 3 -3 10 0 16 8 8 10 6
16 -9 25 -16 10 -19 10 -19 -3 0 -8 -7 -15 -16 -15 -9 0 -12 5 -8 13 4 6 -3 3
-16 -8 -21 -18 -23 -18 -17 -2 6 15 4 16 -15 6 -17 -9 -23 -8 -30 5 -7 12 -14
14 -25 7 -17 -9 -66 6 -58 18 2 4 -5 7 -15 7 -10 0 -16 -4 -14 -8 3 -4 -9 -5
-26 -3 -20 2 -28 0 -24 -7 5 -7 1 -9 -9 -5 -10 3 -17 2 -17 -3 0 -6 -8 -10
-17 -10 -15 0 -15 -2 -4 -9 8 -5 16 -17 17 -25 2 -14 -1 -14 -27 1 -28 17 -29
16 -55 -8 -14 -13 -27 -23 -30 -21 -12 7 -24 0 -24 -13 0 -9 -6 -12 -15 -9 -9
4 -15 0 -15 -10 0 -10 6 -13 15 -10 8 4 15 1 15 -5 0 -7 21 -9 60 -7 35 2 63
-1 67 -7 4 -6 1 -7 -8 -2 -10 6 -11 5 -4 -3 6 -7 32 -16 58 -21 50 -9 61 -6
25 8 l-22 8 22 5 c14 4 20 2 15 -5 -4 -6 0 -8 9 -4 12 4 14 1 11 -13 -3 -10 0
-21 6 -24 6 -4 11 -18 11 -31 0 -47 -101 -100 -363 -190 -138 -47 -169 -50
-182 -17 -5 14 -4 15 6 5 18 -18 65 -15 124 7 l50 19 -41 -6 c-30 -4 -45 -1
-57 12 -16 15 -16 19 -1 48 9 18 24 41 33 51 13 16 13 18 1 11 -13 -8 -13 -7
-1 9 23 28 97 67 173 91 l71 23 -54 12 c-143 31 -293 19 -409 -33 -63 -28
-142 -102 -171 -159 -53 -103 -61 -237 -24 -407 14 -66 24 -85 86 -168 39 -51
98 -118 131 -147 l59 -54 14 -85 c8 -47 18 -103 24 -124 27 -105 33 -160 21
-196 -20 -53 12 -98 100 -142 37 -19 70 -32 73 -29 3 3 36 -20 74 -51 60 -50
72 -56 103 -52 49 7 131 37 155 57 40 34 44 32 135 -42 l90 -73 -6 -55 c-8
-83 -9 -84 -85 -121 -65 -31 -88 -36 -82 -17 1 3 -26 11 -61 17 -36 6 -77 18
-93 26 -15 8 -34 15 -41 15 -14 0 -30 7 -107 47 -33 18 -40 26 -39 51 0 24 -8
35 -36 54 -25 16 -36 30 -35 48 0 50 -20 65 -88 65 -34 0 -65 -3 -68 -8 -11
-15 -68 5 -76 27 -13 40 -12 51 7 71 11 11 22 42 25 67 5 41 3 47 -15 53 -33
10 -56 -3 -74 -43 -14 -32 -71 -82 -93 -82 -3 0 -15 -7 -25 -16 -12 -12 -39
-18 -85 -19 -38 -1 -87 -7 -109 -13 -43 -13 -97 -49 -90 -60 2 -4 -2 -13 -10
-20 -8 -7 -14 -9 -14 -5 0 4 -5 2 -12 -5 -18 -18 -50 -14 -78 8 -30 24 -48 25
-88 5 -17 -9 -39 -18 -49 -20 -51 -10 -72 -18 -67 -26 3 -5 0 -9 -7 -9 -8 0
-9 -3 0 -13 6 -8 8 -16 5 -19 -6 -7 49 -48 64 -48 5 0 15 -6 21 -14 8 -9 25
-12 54 -9 35 4 50 0 81 -21 50 -34 61 -33 102 9 40 42 71 45 84 10 8 -21 5
-33 -15 -65 -21 -32 -23 -44 -14 -63 8 -17 7 -35 -2 -68 -20 -68 -19 -77 10
-84 52 -14 102 -15 95 -3 -5 7 -3 8 7 3 7 -5 28 -9 46 -8 27 0 34 -4 39 -24 4
-13 4 -27 0 -30 -3 -3 -1 -12 6 -20 9 -11 0 -24 -42 -63 -29 -27 -56 -48 -59
-48 -3 1 -18 -4 -32 -10 -15 -6 -33 -12 -40 -13 -22 -5 -119 34 -112 44 4 6
-1 8 -10 4 -10 -3 -17 -2 -17 3 0 11 -61 5 -87 -9 -11 -5 -23 -7 -27 -4 -3 3
-6 1 -6 -5 0 -6 -12 -11 -27 -11 -16 0 -54 -2 -85 -3 -31 -2 -56 1 -55 6 1 4
-5 10 -13 11 -8 2 -33 6 -55 9 -44 7 -73 33 -69 61 1 11 13 39 25 62 22 41 23
43 6 75 -34 67 -89 128 -113 128 -18 0 -22 19 -13 65 12 61 11 80 -9 101 -21
22 -16 53 12 86 21 24 30 68 15 68 -6 0 -8 4 -5 8 3 5 -2 18 -12 28 -16 18
-32 47 -48 89 -9 26 -9 25 -18 57 -10 34 -43 56 -79 52 -27 -3 -28 -1 -22 23
3 15 14 37 24 49 27 35 22 95 -9 111 -31 15 -32 42 -2 66 22 18 30 47 13 47
-5 0 -12 11 -15 25 -4 14 -11 23 -16 20 -6 -3 -10 -2 -10 4 0 5 -10 13 -22 17
-13 4 -23 5 -23 3 0 -2 -10 5 -22 16 -12 10 -19 23 -16 28 10 17 13 77 3 77
-5 0 -12 10 -16 23 -4 12 -17 36 -30 53 -13 17 -24 39 -24 49 0 21 -38 85 -51
85 -5 0 -9 10 -9 21 0 21 -12 35 -64 73 -14 10 -26 25 -26 32 0 8 -4 14 -8 14
-4 0 -9 12 -10 28 -1 15 -4 34 -5 44 -4 23 -100 150 -131 173 -14 11 -26 25
-26 31 0 19 -26 35 -66 39 -22 2 -41 5 -44 6 -24 7 -154 -9 -158 -20 -2 -6 -9
-8 -17 -5 -7 3 -16 0 -20 -5 -3 -6 -10 -9 -15 -6 -5 3 -11 1 -15 -5 -8 -13
-55 -13 -55 -1 0 6 -13 6 -32 0 -18 -5 -63 -7 -100 -3 -64 5 -71 4 -117 -26
-60 -39 -97 -85 -135 -165 -16 -33 -34 -71 -41 -85 -7 -14 -15 -37 -19 -52 -3
-15 -15 -30 -26 -33 -11 -4 -18 -10 -15 -15 3 -5 1 -10 -4 -12 -5 -1 -12 -24
-14 -50 -3 -25 -10 -56 -16 -67 -6 -11 -13 -37 -14 -56 -3 -26 -16 -49 -50
-86 -26 -28 -47 -57 -47 -64 0 -8 -11 -34 -24 -60 -21 -38 -23 -50 -14 -78 14
-43 18 -96 7 -102 -4 -3 -4 -17 1 -31 15 -39 12 -62 -9 -69 -11 -3 -18 -14
-16 -28 1 -12 -14 -51 -32 -86 -43 -82 -36 -110 26 -102 7 2 10 -2 7 -7 -7
-11 21 -25 34 -17 7 5 26 -35 21 -43 -4 -7 29 -32 43 -32 8 0 18 -5 21 -10 4
-6 10 -8 14 -5 5 2 21 -7 35 -20 25 -23 26 -27 12 -46 -18 -27 -11 -46 25 -64
22 -12 33 -13 54 -3 14 6 25 14 25 18 0 3 9 16 20 28 12 12 18 22 14 22 -3 0
-1 7 6 15 7 8 16 12 21 10 4 -3 12 3 18 12 6 11 11 13 11 5 0 -7 4 -11 9 -7 6
3 15 -4 21 -15 6 -11 7 -20 3 -20 -4 -1 3 -7 17 -15 18 -9 29 -10 38 -3 9 8
11 7 6 -6 -4 -11 -2 -16 7 -14 8 2 12 -3 10 -12 -2 -8 -10 -40 -17 -70 -16
-67 -40 -89 -91 -84 -69 7 -73 8 -73 18 0 5 -3 6 -7 3 -3 -4 -17 0 -29 8 -13
8 -34 13 -46 11 -13 -3 -29 -5 -36 -5 -7 -1 -11 -5 -7 -11 6 -9 -59 -5 -76 6
-5 3 -9 1 -9 -4 0 -5 -11 -7 -25 -4 -14 2 -23 7 -21 11 5 8 -52 6 -61 -2 -9
-10 -25 -9 -19 1 3 5 -26 7 -65 6 -38 -1 -69 1 -69 4 0 4 -18 7 -40 7 -22 0
-40 -2 -40 -5 0 -3 -26 -4 -57 -3 -32 2 -68 3 -80 3 -13 0 -23 4 -23 8 0 4
-15 8 -33 9 -114 4 -175 11 -196 22 -19 11 -22 11 -15 -1 6 -11 5 -11 -8 0
-13 11 -21 11 -39 2 -13 -7 -19 -8 -15 -2 4 7 -16 11 -57 11 -65 0 -151 28
-159 52 -4 12 -185 32 -201 22 -4 -3 -45 -4 -90 -3 -118 3 -141 4 -152 11 -5
4 -26 6 -45 5 -19 -1 -64 6 -99 16 -61 17 -123 21 -258 19 l-63 -1 0 -7345 0
-7345 6830 0 6830 0 0 3284 0 3285 -22 4 -23 4 23 2 22 1 0 4281 c0 3021 -3
4278 -11 4274 -6 -4 -8 -14 -5 -24 4 -11 2 -10 -9 4 -15 19 -15 19 -12 -5 3
-14 1 -33 -4 -42 -6 -11 -5 -18 4 -22 6 -2 -2 -2 -19 1 -18 3 -35 0 -38 -6 -4
-6 -13 -8 -19 -4 -8 4 -8 1 1 -9 11 -13 10 -16 -4 -14 -11 0 -20 -9 -25 -27
-4 -16 -4 -25 2 -21 5 3 9 0 9 -6 0 -6 5 -8 10 -5 6 3 13 -1 16 -10 5 -12 9
-13 20 -4 12 10 13 9 8 -6 -4 -10 -1 -21 7 -26 20 -13 31 -11 23 4 -4 6 -3 9
1 4 12 -10 14 -67 2 -67 -5 0 -7 7 -4 15 4 8 2 17 -4 20 -5 4 -8 1 -7 -5 2 -7
-5 -14 -15 -15 -13 -3 -15 0 -8 8 7 9 -7 12 -54 12 -35 0 -61 3 -59 7 3 5 -1
8 -9 8 -7 0 -19 12 -25 26 -7 14 -17 22 -23 18 -8 -4 -7 -9 2 -16 11 -8 11 -9
-1 -5 -8 2 -15 10 -15 18 -1 8 -7 13 -14 11 -9 -2 -11 3 -7 15 5 16 4 16 -6 3
-15 -17 -51 -24 -41 -7 4 6 0 8 -10 4 -10 -4 -29 7 -53 29 -21 19 -47 34 -58
34 -17 0 -18 2 -6 10 9 6 10 10 3 10 -6 0 -15 -4 -18 -10 -11 -18 -38 -12 -30
8 4 12 3 14 -5 6 -13 -13 -2 -46 13 -37 6 4 7 1 2 -7 -6 -10 -14 -7 -32 14
-20 24 -29 21 -24 -7 1 -5 -3 -6 -8 -2 -6 3 -8 12 -4 20 4 13 -9 21 -20 13 -2
-2 -11 3 -20 10 -11 9 -17 10 -22 2 -4 -6 -4 -14 -1 -17 3 -4 6 -1 6 6 0 7 4
10 10 6 5 -3 7 -12 3 -20 -3 -8 0 -15 6 -15 6 0 11 8 12 18 0 11 4 7 11 -10
10 -29 22 -35 33 -17 8 12 48 -26 52 -49 1 -8 6 -18 12 -21 16 -10 30 -57 24
-81 -4 -17 -11 -21 -29 -17 -13 2 -24 1 -24 -4 0 -4 -8 -6 -19 -4 -10 2 -34
-6 -52 -18 -19 -12 -46 -22 -61 -21 -16 1 -28 -3 -28 -9 0 -5 -8 -3 -17 4 -12
10 -15 10 -9 1 13 -22 -55 -4 -76 20 -10 12 -18 17 -18 13 0 -5 -6 -1 -13 9
-15 20 -16 60 -1 62 24 4 54 17 54 25 0 4 9 6 20 4 11 -2 18 0 15 4 -3 5 2 12
11 15 8 3 12 2 9 -3 -3 -6 6 -8 21 -7 26 3 47 23 38 37 -2 4 1 11 7 15 8 4 9
3 5 -4 -5 -8 -1 -10 10 -5 11 4 13 8 6 11 -7 2 -12 9 -12 16 0 7 -5 17 -12 24
-9 9 -15 7 -25 -6 -8 -9 -12 -11 -8 -5 3 7 1 21 -5 30 -11 17 -11 17 -6 0 5
-15 3 -16 -16 -6 -18 10 -20 9 -15 -5 8 -21 -8 -29 -23 -11 -7 8 -21 15 -31
15 -10 0 -21 5 -25 12 -5 7 -3 8 6 3 10 -6 12 -4 7 8 -4 12 0 14 19 11 16 -3
23 -1 19 6 -3 5 -2 10 4 10 5 0 12 -6 14 -12 3 -8 6 -6 6 4 1 11 6 15 16 12 8
-4 15 -1 15 6 0 6 5 8 11 4 7 -4 7 1 -1 16 -7 13 -8 20 -1 16 5 -4 15 3 21 15
10 17 9 20 -2 13 -10 -6 -10 -4 1 10 13 15 12 20 -11 40 -34 32 -77 40 -114
21 -16 -8 -39 -15 -51 -15 -13 0 -23 -4 -23 -8 0 -5 -10 -8 -22 -7 -13 1 -27
-1 -33 -4 -20 -14 -40 -6 -37 14 2 11 8 22 13 23 5 2 7 8 3 13 -3 5 0 9 6 9 9
0 32 41 34 63 1 4 7 12 15 16 8 5 12 18 9 29 -3 10 -2 26 3 34 10 19 -15 46
-26 28 -3 -5 -12 -10 -18 -10 -8 0 -8 3 1 9 10 6 9 10 -7 14 -12 3 -19 1 -16
-3 3 -5 -1 -10 -7 -13 -10 -3 -10 -8 2 -23 14 -18 14 -18 -5 -3 -11 9 -26 14
-32 12 -13 -5 -15 0 -17 54 -1 17 2 29 6 27 5 -3 8 -1 8 5 0 5 -6 12 -12 14
-7 3 -4 6 6 6 11 1 16 4 13 8 -4 3 1 16 10 27 17 20 17 20 0 7 -15 -12 -20
-12 -30 -1 -10 10 -9 11 2 5 10 -6 12 -4 7 4 -6 9 -11 9 -24 -1 -13 -11 -14
-11 -8 1 7 10 3 11 -15 5 -13 -4 -33 -7 -44 -6 -10 1 -24 -3 -30 -8 -6 -5 -22
-7 -36 -4 -13 3 -29 6 -36 6 -7 1 -10 5 -7 10 3 4 -2 8 -11 8 -9 0 -14 3 -11
8 2 4 -9 23 -26 42 -16 19 -26 29 -22 21 5 -10 3 -12 -5 -7 -7 5 -10 15 -7 23
3 8 1 11 -4 8 -6 -3 -10 -15 -10 -26 0 -11 -4 -18 -9 -15 -5 4 -7 -2 -4 -12 3
-11 -8 -29 -29 -49 -65 -62 -90 -84 -92 -81 -2 2 -9 19 -16 38 -8 19 -16 37
-19 40 -20 18 -32 86 -25 150 5 54 4 70 -6 70 -7 0 -18 8 -25 17 -18 25 -70
25 -92 0 -10 -11 -12 -17 -5 -13 17 10 15 -5 -4 -32 -8 -12 -12 -22 -8 -22 12
0 -39 -44 -53 -46 -7 -1 -11 1 -8 6 3 4 -11 10 -29 12 -19 2 -33 1 -30 -3 2
-4 -3 -10 -11 -13 -12 -4 -14 -10 -5 -26 6 -10 8 -33 5 -49 -3 -16 -1 -33 5
-36 6 -3 7 1 4 9 -3 9 -2 16 4 16 6 0 9 -8 7 -17 -2 -10 -4 -21 -4 -26 -1 -4
-4 -6 -8 -6 -5 1 -10 0 -13 -1 -3 -1 -45 -3 -95 -5 -72 -2 -94 1 -112 15 -12
10 -19 20 -15 24 3 4 -2 4 -12 0 -15 -6 -17 -4 -11 6 5 8 4 11 -3 6 -6 -3 -22
-2 -37 4 -17 7 -24 7 -20 0 3 -6 1 -10 -6 -10 -7 0 -10 -2 -7 -5 3 -3 -7 -30
-22 -59 -24 -48 -26 -57 -14 -84 15 -36 35 -48 91 -51 35 -2 44 2 58 23 12 18
23 23 42 20 41 -8 46 -14 40 -55 -5 -38 -29 -74 -41 -62 -3 4 -6 1 -6 -5 0 -7
-8 -12 -18 -12 -10 0 -23 -5 -29 -11 -8 -8 -24 -6 -57 5 -26 9 -56 16 -66 16
-11 0 -20 4 -20 9 0 5 -10 7 -22 3 -16 -4 -19 -2 -13 9 6 11 5 11 -5 2 -10 -9
-16 -9 -26 2 -8 7 -14 18 -14 24 0 6 -4 11 -9 11 -16 0 -20 26 -10 68 7 32 5
49 -8 77 -9 19 -21 35 -25 35 -5 0 -6 -4 -3 -10 4 -6 -3 -6 -21 0 -48 18 -78
41 -109 81 -37 47 -84 60 -126 35 -16 -10 -29 -14 -29 -9 0 4 -5 0 -11 -9 -13
-24 -35 -23 -56 2 -10 11 -22 20 -28 20 -5 0 -3 -5 5 -10 8 -5 11 -10 5 -10
-15 1 -40 23 -48 43 -8 22 -5 33 8 28 50 -17 77 7 55 49 -7 13 -7 20 -1 20 6
0 8 7 5 15 -4 8 -9 13 -13 10 -4 -2 -8 2 -8 10 0 8 2 13 5 10 8 -8 43 16 37
26 -4 5 -1 9 6 9 6 0 9 8 6 20 -3 11 -1 18 4 14 5 -3 9 6 9 19 0 22 39 67 59
67 17 0 41 37 41 64 0 15 4 25 10 21 19 -12 -4 29 -29 52 -35 30 -100 32 -102
3 -1 -11 -3 -29 -4 -40 -1 -11 -3 -24 -4 -30 0 -5 -7 -10 -14 -10 -46 0 -117
-60 -109 -92 1 -3 -5 -9 -14 -12 -10 -4 -14 0 -12 12 2 9 -3 16 -9 14 -7 -1
-13 6 -13 15 0 15 -2 16 -10 3 -8 -13 -10 -13 -10 1 0 9 -7 19 -15 23 -8 3
-14 2 -14 -2 1 -4 0 -9 -1 -12 -1 -5 -6 -23 -14 -60 -2 -8 2 -21 8 -29 6 -8 7
-12 1 -9 -13 7 -29 -11 -33 -37 -7 -50 -3 -108 10 -123 8 -9 15 -30 17 -46 2
-22 -1 -28 -12 -23 -9 3 -18 -1 -21 -9 -3 -8 -11 -14 -18 -14 -9 0 -8 3 2 10
8 5 11 10 5 10 -12 0 -43 -20 -31 -20 5 0 3 -7 -5 -16 -10 -13 -10 -17 0 -24
11 -6 11 -9 0 -13 -8 -3 1 -8 19 -12 22 -5 31 -12 28 -21 -3 -8 -2 -14 2 -14
4 0 8 -8 8 -17 1 -10 3 -25 6 -33 3 -8 3 -12 1 -9 -2 4 -13 4 -25 1 -18 -4
-20 -2 -15 17 5 19 3 20 -11 9 -13 -11 -15 -11 -9 5 4 11 1 17 -9 17 -8 0 -12
5 -9 10 3 6 -1 10 -10 10 -9 0 -14 4 -11 8 3 5 -1 9 -9 9 -8 0 -11 -5 -8 -11
4 -6 -1 -5 -10 3 -10 8 -21 11 -25 7 -9 -9 -10 -76 -1 -70 4 2 10 -3 13 -12 3
-8 2 -12 -3 -9 -5 3 -12 1 -16 -5 -3 -5 2 -11 12 -11 10 -1 5 -4 -12 -8 -35
-8 -46 -4 -25 9 11 7 12 10 2 10 -7 0 -11 4 -8 8 7 11 -58 42 -89 42 -14 0
-29 -8 -35 -20 -6 -11 -8 -20 -5 -20 3 0 1 -9 -5 -20 -9 -16 -7 -24 5 -36 13
-13 13 -19 3 -32 -11 -13 -11 -15 2 -8 8 4 6 0 -4 -8 -32 -26 -56 -20 -56 13
0 16 -3 31 -8 33 -4 2 -18 16 -30 32 -13 17 -28 31 -35 32 -7 1 -39 7 -71 13
-33 6 -65 11 -72 11 -15 0 -9 -54 11 -84 9 -13 18 -33 20 -45 3 -11 7 -30 9
-41 4 -14 0 -20 -14 -20 -29 0 -51 -11 -44 -22 4 -6 -2 -5 -14 1 -11 6 -28 8
-38 4 -10 -3 -15 -2 -12 3 4 5 -11 8 -33 8 -21 -1 -36 2 -33 7 3 5 0 9 -6 9
-6 0 -27 15 -46 33 -46 42 -59 48 -93 49 -24 1 -29 5 -25 21 4 25 68 87 88 87
23 0 30 20 11 34 -25 18 -84 19 -111 1 -33 -22 -80 -16 -93 11 -8 18 -5 24 13
33 33 18 32 64 -3 121 -27 44 -28 49 -13 65 16 16 16 17 -7 5 -20 -10 -25 -10
-33 4 -5 9 -13 14 -18 11 -5 -3 -21 12 -34 34 -14 22 -35 47 -48 56 -21 15
-24 14 -33 -1 -5 -9 -21 -29 -34 -43 -13 -14 -18 -17 -10 -6 7 11 -1 6 -19
-11 -28 -27 -36 -30 -79 -27 -44 4 -49 2 -64 -24 -24 -41 -32 -83 -17 -83 9 0
8 -3 -2 -10 -9 -6 -10 -10 -3 -10 7 0 10 -9 7 -22 -3 -13 -6 -33 -7 -46 -1
-12 -6 -22 -11 -21 -5 0 -13 -6 -18 -15 -13 -23 -35 -20 -44 7 -13 39 -13 47
6 60 18 12 16 16 -26 61 -48 52 -55 79 -25 96 12 6 18 18 16 30 -5 25 26 63
67 83 20 10 26 17 16 17 -10 0 -18 4 -18 9 0 6 8 8 18 6 15 -3 18 4 17 47 0
43 -4 54 -27 71 -14 11 -43 20 -65 21 l-38 1 -3 -45 c-2 -24 -8 -50 -14 -57
-5 -7 -7 -17 -3 -23 3 -5 1 -10 -5 -10 -6 0 -9 -4 -5 -9 6 -11 -37 -61 -52
-61 -29 0 -114 64 -113 85 1 3 -6 12 -14 21 -11 11 -13 21 -6 38 5 13 6 27 3
30 -4 3 -1 6 6 6 7 0 9 5 6 10 -3 6 0 13 9 16 25 9 48 54 51 98 1 22 8 55 15
71 14 37 15 128 0 155 -9 17 -8 20 7 20 15 0 16 2 3 10 -13 9 -13 11 0 20 8 5
11 10 6 10 -5 0 -4 6 2 13 6 6 13 28 17 48 6 32 3 39 -20 58 -15 11 -25 21
-21 21 4 0 0 7 -8 16 -9 8 -16 27 -16 42 -1 65 -90 157 -128 133z m-4232 -447
c0 -13 -25 -50 -42 -62 -10 -7 -16 -18 -13 -23 4 -5 2 -9 -2 -9 -5 0 -17 -14
-28 -32 -10 -18 -20 -27 -23 -20 -2 7 -16 2 -38 -16 -24 -19 -34 -35 -34 -55
0 -16 -5 -37 -10 -48 -8 -15 -7 -21 4 -25 12 -5 13 -10 5 -26 -13 -24 -52
-160 -68 -240 l-12 -56 -49 -12 c-48 -11 -76 -7 -65 10 3 4 -1 10 -9 13 -9 4
-17 32 -22 84 -13 118 -8 170 21 235 14 32 24 62 21 67 -3 5 1 12 10 15 9 3
14 13 10 21 -3 8 0 17 6 21 7 4 8 3 4 -4 -4 -7 -2 -12 3 -12 6 0 11 10 11 22
0 23 55 79 103 104 54 29 217 65 217 48z m830 -614 c11 -11 22 -32 26 -47 3
-16 11 -46 17 -68 11 -44 10 -84 -4 -101 -5 -6 -6 -13 -3 -17 3 -3 -8 -32 -25
-64 -26 -50 -30 -67 -28 -125 1 -36 4 -65 6 -63 15 16 57 -100 49 -136 -2 -7
-13 -21 -24 -31 -12 -10 -24 -28 -28 -40 -7 -28 -72 -74 -98 -70 -24 4 -88
-17 -88 -29 0 -5 -11 -9 -25 -9 -28 0 -31 -9 -12 -30 6 -8 1 -6 -12 5 -31 27
-104 129 -146 207 -71 130 -85 164 -85 201 l0 38 -22 -22 c-24 -22 -68 -43
-75 -35 -2 2 10 19 27 37 17 19 41 53 52 76 11 23 30 54 44 68 13 14 24 28 24
30 0 3 0 22 0 43 0 55 12 69 44 53 14 -8 23 -17 21 -21 -9 -15 32 -38 88 -50
36 -7 55 -15 51 -22 -5 -7 2 -9 22 -4 16 4 37 7 47 7 9 0 15 5 11 10 -3 5 0
16 6 24 10 12 9 15 -6 16 -11 0 -14 3 -6 6 6 2 9 9 6 14 -6 10 40 59 54 59 11
0 62 96 55 104 -3 3 -1 6 5 6 7 0 21 -9 32 -20z m-1100 -63 c0 -11 16 -51 35
-88 44 -86 77 -169 67 -169 -24 0 -157 184 -146 201 4 7 3 9 -3 6 -10 -6 -33
33 -33 56 0 8 16 13 40 13 34 1 40 -2 40 -19z m6680 -114 c55 -38 63 -61 19
-58 -24 2 -66 -33 -61 -50 2 -5 5 -25 7 -43 2 -25 -1 -32 -11 -28 -8 3 -14 1
-14 -4 0 -6 8 -10 18 -10 14 -1 15 -2 2 -9 -8 -5 -18 -8 -21 -8 -3 1 -13 -4
-22 -11 -13 -11 -17 -10 -25 4 -8 14 -9 12 -9 -12 0 -16 7 -34 16 -41 15 -12
14 -14 -4 -25 -22 -14 -36 -17 -80 -20 -34 -2 -115 29 -115 44 0 5 -4 7 -9 4
-5 -4 -1 12 10 33 10 22 19 45 19 50 0 6 7 8 15 5 8 -4 21 -2 28 4 15 11 47
12 47 0 0 -4 12 -8 26 -8 14 0 23 4 19 9 -3 5 1 15 8 23 26 26 35 51 27 79 -7
24 -6 27 16 24 14 -1 23 0 20 2 -2 3 0 18 6 34 11 33 32 37 68 12z m-1785 -82
c55 -54 85 -93 85 -113 0 -20 -5 -24 -52 -32 -36 -7 -37 -6 -47 31 -6 20 -8
39 -6 42 3 2 5 -1 5 -7 0 -7 5 -12 12 -12 9 0 9 3 0 12 -14 14 -22 16 -134 27
-6 1 -5 19 6 81 3 14 5 28 5 32 2 17 90 -26 126 -61z m37 -221 c18 -11 29 -20
25 -20 -5 0 -5 -6 0 -12 4 -7 9 -22 10 -33 2 -11 10 -23 17 -27 8 -5 14 -27
15 -59 l1 -51 -40 4 c-22 2 -40 0 -40 -5 0 -5 -6 -7 -14 -4 -9 4 -12 -2 -10
-23 3 -22 -4 -35 -25 -52 -15 -14 -30 -30 -32 -37 -3 -9 -22 3 -52 34 -26 25
-47 47 -47 48 0 1 4 16 9 33 5 17 5 37 1 44 -4 7 -3 19 3 27 29 36 48 46 88
48 25 2 47 9 54 19 7 8 16 12 20 8 4 -4 2 3 -4 16 -13 25 -22 62 -16 62 3 0
19 -9 37 -20z m2442 -373 c30 -21 31 -23 15 -39 -10 -9 -20 -13 -24 -10 -3 4
-4 0 -1 -8 14 -37 23 -109 13 -103 -6 4 -8 0 -4 -9 4 -12 1 -14 -14 -11 -10 3
-16 9 -13 14 3 5 0 9 -6 9 -9 0 -29 38 -26 50 0 3 -9 19 -22 37 -14 20 -19 34
-12 38 8 5 8 11 1 19 -29 34 47 45 93 13z m-9530 -24 c8 3 18 2 22 -4 3 -6 13
-8 21 -5 11 5 13 -1 8 -27 -7 -37 -13 -62 -15 -62 -1 0 -3 -8 -5 -19 -2 -10
-12 -26 -23 -37 -16 -15 -22 -16 -31 -5 -6 7 -8 16 -5 19 4 4 -3 4 -15 2 -12
-2 -19 0 -16 4 3 5 -2 11 -10 15 -8 3 -15 13 -15 23 0 15 -2 16 -10 3 -13 -21
-12 -6 2 25 6 14 17 25 25 25 7 0 13 5 13 11 0 5 5 7 12 3 7 -4 8 -3 4 5 -4 7
-5 19 -1 29 5 13 8 14 15 3 4 -8 15 -11 24 -8z m10492 -331 c-2 -4 2 -13 10
-20 8 -7 14 -8 14 -2 0 5 5 10 11 10 5 0 7 -6 3 -12 -5 -9 -2 -8 9 1 10 8 20
11 24 7 3 -3 2 -6 -4 -6 -5 0 -10 -7 -10 -15 0 -11 4 -12 13 -4 8 7 14 6 20
-2 4 -7 3 -9 -3 -6 -15 9 -24 -18 -11 -31 14 -14 -26 -57 -46 -49 -9 4 -16 2
-16 -4 0 -5 -12 -7 -27 -3 -16 3 -40 7 -55 7 -16 1 -28 5 -28 9 0 4 -8 5 -19
3 -14 -2 -17 2 -15 18 6 40 9 52 14 52 3 0 18 12 34 27 20 18 36 25 53 22 17
-3 22 -1 17 7 -4 8 -3 9 5 5 6 -4 9 -10 7 -14z m-8072 -6 c18 -7 56 -34 85
-60 28 -25 56 -46 61 -46 6 0 10 -6 10 -14 0 -8 7 -16 15 -20 19 -7 19 -30 1
-59 -16 -27 -14 -76 5 -88 27 -17 61 -9 90 21 17 16 27 34 24 40 -4 6 -10 8
-14 6 -4 -3 -8 0 -9 7 0 7 -4 22 -7 35 -6 18 -4 22 16 22 13 0 33 -7 43 -15
11 -8 16 -15 11 -15 -4 0 1 -8 13 -18 19 -17 20 -19 4 -53 -24 -52 -40 -68
-62 -62 -11 3 -20 0 -20 -6 0 -6 -4 -11 -10 -11 -39 0 -125 -47 -175 -96 -52
-52 -94 -74 -137 -74 -11 0 -15 5 -12 15 4 8 2 15 -4 15 -6 0 -16 16 -22 35
-10 32 -9 40 14 79 13 23 26 54 28 67 2 13 7 29 11 36 11 18 -21 43 -56 43
-18 0 -43 6 -57 13 -31 16 -53 57 -39 73 5 7 8 16 7 20 -7 22 25 73 49 79 14
3 23 9 19 12 -3 3 -1 12 5 20 15 17 71 17 113 -1z m31 -607 c-4 -5 0 -9 7 -9
9 -1 7 -4 -3 -10 -23 -13 -24 -86 -1 -100 15 -9 15 -10 -3 -8 -18 3 -19 -3
-17 -75 1 -67 -1 -78 -14 -73 -8 3 -12 2 -9 -4 3 -5 8 -19 10 -30 3 -18 1 -19
-18 -8 -14 7 -5 -8 23 -38 24 -27 56 -53 70 -58 14 -5 41 -20 60 -33 19 -12
38 -23 42 -23 4 0 19 -10 33 -22 19 -16 22 -24 13 -31 -9 -5 -6 -6 8 -2 16 4
23 0 27 -15 4 -15 0 -20 -14 -20 -10 0 -18 -6 -17 -12 2 -8 -5 -12 -17 -10
-76 10 -123 8 -148 -5 -38 -19 -30 -34 20 -38 52 -4 106 -34 92 -51 -6 -8 -4
-16 6 -24 13 -11 13 -15 3 -21 -7 -5 -13 -12 -13 -16 -1 -4 -6 -18 -13 -29 -6
-12 -13 -36 -14 -53 -1 -20 -7 -30 -15 -27 -8 3 -10 -1 -6 -11 5 -12 3 -14 -7
-8 -10 6 -11 4 -4 -6 4 -8 10 -22 11 -33 2 -14 -1 -17 -14 -12 -10 4 -14 4
-10 0 4 -4 2 -13 -4 -21 -9 -10 -8 -13 2 -13 9 -1 5 -8 -10 -20 -13 -11 -18
-20 -12 -20 6 0 11 -4 11 -10 0 -5 -9 -10 -21 -10 -11 0 -18 -4 -15 -9 6 -10
-65 -3 -99 9 -13 5 -24 2 -32 -9 -8 -10 -12 -12 -13 -3 0 20 -20 14 -20 -7 0
-28 11 -32 84 -32 67 -1 82 -11 77 -51 -3 -25 16 -22 22 3 3 12 10 18 16 15
14 -9 111 89 111 112 0 10 -11 24 -25 30 -14 6 -25 17 -25 24 0 10 2 10 8 1 4
-6 20 -17 35 -22 17 -7 25 -16 21 -22 -14 -23 36 12 94 65 83 78 218 133 463
190 163 38 219 39 74 2 -119 -30 -211 -63 -327 -114 -23 -11 -70 -29 -103 -41
-32 -12 -77 -36 -100 -52 -61 -45 -185 -169 -185 -185 0 -8 -9 -22 -20 -31
-11 -10 -20 -23 -20 -31 0 -7 -5 -10 -10 -7 -6 4 -10 3 -9 -2 4 -25 -3 -43
-18 -44 -12 0 -13 -2 -5 -6 9 -3 5 -12 -13 -29 -14 -13 -23 -29 -20 -34 3 -6
0 -10 -7 -10 -10 0 -10 -2 1 -9 11 -7 10 -11 -5 -20 -11 -6 -15 -11 -11 -11
12 0 -19 -30 -31 -30 -15 0 -22 -28 -9 -34 7 -2 4 -5 -6 -5 -10 -1 -15 -5 -12
-11 10 -16 -10 -11 -36 9 -25 19 -54 21 -78 6 -10 -5 -12 -4 -7 3 5 8 -1 12
-15 12 -19 0 -20 -2 -8 -16 13 -16 58 -39 71 -36 4 1 12 -7 18 -18 9 -17 5
-21 -32 -32 -24 -7 -48 -17 -55 -23 -22 -18 -37 -30 -151 -121 -188 -147 -197
-155 -201 -166 -2 -6 4 -17 14 -24 17 -12 16 -14 -8 -23 -14 -6 -37 -20 -50
-31 -25 -22 -25 -23 -10 -68 8 -26 21 -59 28 -73 8 -14 12 -35 9 -47 -5 -17
-10 -19 -30 -12 -32 12 -31 -3 1 -20 14 -7 25 -20 25 -27 0 -8 -4 -11 -10 -8
-5 3 -10 -1 -10 -9 0 -19 -34 -30 -57 -18 -28 14 -96 22 -111 13 -8 -5 9 -10
47 -14 68 -6 91 -15 70 -28 -8 -4 -38 -5 -68 -2 -50 5 -54 4 -46 -13 12 -25
13 -154 2 -177 -7 -16 -6 -17 12 -8 11 6 23 16 26 21 3 5 16 15 28 22 20 10
21 10 8 -6 -8 -9 -31 -34 -52 -56 -21 -21 -46 -51 -56 -67 -20 -30 -24 -36
-134 -163 -100 -115 -156 -170 -174 -170 -8 0 -24 9 -36 21 -16 16 -18 23 -8
35 6 8 21 14 33 14 23 0 96 45 96 60 0 5 48 58 106 119 58 61 102 111 96 111
-5 0 -12 12 -15 26 -3 20 -1 24 12 20 11 -4 10 -2 -3 9 -11 8 -15 15 -9 15 6
0 -4 15 -23 34 -34 34 -43 56 -24 56 6 0 15 -11 20 -25 12 -30 12 -30 36 -3
14 15 15 20 4 16 -15 -6 -83 25 -75 34 3 3 -3 12 -14 22 -17 16 -18 15 -15
-21 1 -21 5 -51 8 -67 3 -16 3 -33 0 -37 -8 -14 -35 3 -30 18 3 8 1 11 -4 8
-5 -3 -17 3 -27 15 -10 11 -25 20 -33 20 -26 0 -63 45 -56 68 6 19 71 53 129
67 46 12 105 89 128 169 20 65 28 83 65 141 12 18 11 20 -19 21 -39 2 -56 6
-82 22 -11 6 -14 12 -7 12 9 0 10 5 3 18 -7 13 -4 26 10 49 25 40 50 55 122
78 39 12 64 27 77 46 25 34 25 42 1 29 -11 -5 -44 -10 -73 -10 -54 0 -109 -24
-134 -58 -6 -8 -18 -13 -26 -9 -17 6 -31 57 -16 57 5 0 6 4 3 10 -9 15 44 79
84 101 20 11 51 31 70 44 41 30 69 31 120 6 40 -21 61 -14 61 18 0 8 18 38 40
67 35 46 40 60 40 106 0 52 1 53 70 120 62 60 70 71 70 105 0 59 26 179 70
330 61 204 68 219 108 252 75 62 72 57 61 93 -23 81 -12 123 56 212 32 42 35
52 35 111 0 63 1 65 20 55 11 -6 18 -15 15 -21z m2263 -331 c6 -23 9 -46 6
-50 -3 -5 -1 -23 5 -41 5 -17 11 -76 14 -130 2 -53 6 -100 9 -103 3 -3 49 -1
102 5 120 14 193 14 201 1 4 -6 18 0 37 15 34 29 46 31 76 9 16 -11 22 -24 21
-52 -1 -20 -3 -30 -6 -22 -2 11 -17 17 -41 18 -20 0 -60 4 -89 7 -30 4 -97 0
-162 -9 -62 -9 -116 -14 -122 -10 -6 3 -19 -3 -30 -15 -24 -26 -67 -27 -85 -3
-10 12 -13 13 -9 2 4 -12 -23 -29 -103 -68 -107 -51 -145 -62 -157 -42 -3 6
-12 10 -18 10 -7 0 -6 -4 3 -10 8 -5 12 -10 8 -10 -3 0 -14 -3 -24 -7 -12 -4
-15 -3 -10 5 4 7 3 12 -3 12 -5 0 -11 -4 -13 -10 -2 -6 -15 -6 -32 -2 -29 8
-29 8 23 30 29 12 57 19 62 17 4 -3 34 5 66 19 32 13 85 36 118 50 53 22 61
28 65 58 7 43 -7 196 -20 226 -6 13 -10 43 -10 67 0 38 4 46 28 59 15 8 39 15
53 16 23 0 28 -6 37 -42z m-1772 -42 c8 -8 14 -36 15 -63 1 -35 3 -41 8 -24 7
25 31 42 31 22 0 -6 11 -11 23 -11 13 0 31 -8 40 -18 16 -17 16 -19 -6 -31
-13 -7 -34 -11 -47 -9 -18 2 -25 -5 -39 -41 -9 -24 -22 -46 -29 -47 -7 -1 -8
0 -2 3 18 9 11 26 -9 20 -25 -6 -33 40 -21 125 6 35 10 69 10 76 0 16 8 15 26
-2z m1519 -1272 c8 3 16 2 19 -2 5 -9 -29 -161 -74 -329 l-32 -123 -87 -102
c-48 -57 -96 -113 -106 -126 -11 -13 -28 -28 -38 -33 -16 -9 -17 -7 -11 18 12
48 134 283 145 280 7 -1 22 30 34 68 12 39 50 126 84 195 33 69 61 128 61 132
0 4 -6 5 -14 2 -8 -3 -16 4 -20 18 -6 21 -7 22 -20 6 -16 -22 -22 -22 -30 -2
-3 8 -2 13 3 10 5 -3 14 1 21 8 10 13 14 12 31 -5 11 -11 27 -18 34 -15z m134
1 c17 -20 31 -45 31 -56 0 -11 -35 -75 -77 -142 -89 -142 -82 -132 -88 -125
-3 3 10 59 29 124 18 65 39 145 46 177 7 31 17 57 21 57 4 0 21 -16 38 -35z
m2907 16 c53 -32 79 -114 52 -164 -17 -32 -37 -44 -67 -40 -102 16 -132 26
-142 45 -19 35 -21 76 -5 106 34 65 105 88 162 53z m-9006 -60 c3 -1 12 -5 20
-11 12 -8 12 -11 -1 -27 -9 -10 -22 -40 -29 -68 -7 -27 -19 -62 -27 -77 -13
-27 -50 -54 -59 -45 -3 3 4 40 15 83 16 67 17 81 6 93 -20 20 -45 -3 -45 -40
0 -15 -5 -31 -11 -35 -7 -4 -9 -22 -6 -46 5 -38 4 -40 -30 -54 -19 -9 -38 -13
-41 -10 -3 3 -11 1 -19 -5 -19 -16 -17 6 3 25 14 14 23 50 41 153 7 42 25 56
67 51 19 -2 33 -1 30 3 -7 11 57 19 86 10z m5166 -16 c15 -38 -39 -381 -64
-409 -9 -10 -73 -45 -142 -78 -220 -105 -364 -183 -651 -354 -114 -67 -289
-164 -390 -214 -101 -51 -188 -95 -194 -99 -19 -15 -250 -133 -240 -124 23 22
289 171 433 243 87 43 279 149 427 235 149 86 374 208 501 271 128 63 236 120
241 127 10 12 38 183 48 297 4 36 9 74 12 84 5 16 1 18 -24 13 -91 -18 -1062
-509 -1263 -639 -47 -30 -135 -84 -195 -120 -61 -37 -118 -75 -126 -85 -14
-16 -78 -334 -83 -408 0 -14 -7 -25 -15 -25 -10 0 -12 9 -7 33 3 17 10 66 15
107 6 41 17 108 26 148 8 40 15 84 15 97 0 14 12 38 28 54 30 32 352 230 532
326 410 221 934 482 1060 528 28 10 51 7 56 -8z m-69 -81 c3 -8 -4 -28 -16
-44 -17 -24 -19 -34 -11 -56 8 -21 8 -29 -2 -36 -23 -14 -37 -9 -44 17 -8 32
-20 24 -28 -20 -5 -26 -12 -35 -27 -35 -18 0 -20 4 -14 48 13 96 15 102 53
122 45 23 81 25 89 4z m-179 -129 c-10 -64 -20 -84 -40 -85 -5 0 -8 10 -8 22
l0 22 -16 -22 c-10 -14 -24 -22 -37 -20 -26 4 -43 -47 -24 -71 11 -14 10 -14
-5 -2 -15 11 -19 11 -24 -3 -9 -23 -44 -40 -56 -28 -9 9 10 36 32 44 5 1 14
36 20 77 6 40 13 77 16 82 10 16 44 10 44 -8 0 -10 4 -25 10 -33 7 -11 14 -3
30 35 21 51 48 81 61 68 4 -5 2 -39 -3 -78z m1369 -198 c-1 -40 4 -61 21 -84
12 -17 22 -36 22 -42 0 -6 4 -11 8 -11 5 0 14 -17 21 -38 11 -32 10 -48 -1
-95 -15 -58 -13 -67 11 -44 11 10 13 10 7 0 -4 -7 -2 -13 4 -13 6 0 8 -4 5
-10 -3 -5 1 -10 9 -10 19 0 21 23 5 52 -9 18 -8 19 10 13 12 -3 20 -3 19 2 -2
4 2 9 7 10 13 3 8 -73 -8 -106 -6 -14 -21 -30 -32 -36 -11 -6 -21 -17 -23 -25
-2 -8 -8 -17 -14 -19 -7 -2 -7 -6 0 -10 6 -4 8 -12 3 -19 -6 -9 -15 -10 -39
-1 -18 6 -32 15 -32 21 0 5 5 6 12 2 8 -5 9 8 3 52 -11 85 -13 146 -5 169 4
11 10 37 14 57 5 30 4 37 -7 32 -8 -3 -19 -16 -26 -30 -14 -31 -31 -23 -31 15
0 15 -3 31 -7 35 -9 9 -75 -131 -88 -188 -7 -29 -20 -39 -43 -32 -23 8 -22 31
3 126 8 30 17 67 20 83 6 30 39 38 49 12 11 -29 25 -14 24 26 0 46 6 56 42 61
23 3 25 7 24 51 -1 26 2 47 7 47 4 0 7 -24 6 -53z m-2017 -81 c0 -15 -21 -26
-50 -26 -10 0 -20 -7 -23 -15 -5 -11 2 -14 31 -12 33 2 37 -1 40 -24 4 -35
-56 -89 -98 -89 -28 0 -30 2 -30 39 0 57 19 101 54 122 36 22 76 25 76 5z
m3472 -62 c45 -23 110 -107 170 -221 91 -170 164 -323 182 -383 10 -30 24 -67
32 -82 8 -15 18 -47 22 -70 4 -23 12 -43 19 -45 8 -3 9 7 3 34 -5 20 -8 39 -6
40 5 5 70 -122 101 -197 34 -79 47 -122 35 -115 -5 3 -11 -8 -15 -25 -6 -29
-30 -50 -56 -50 -8 0 -6 5 5 13 22 16 12 67 -13 67 -23 0 -41 65 -41 150 0 56
-3 70 -15 70 -8 0 -15 -4 -15 -10 0 -5 -5 -10 -10 -10 -7 0 -7 6 -1 19 7 13 6
24 -3 36 -13 18 -13 17 -13 -6 1 -56 -3 -122 -7 -118 -3 3 -12 52 -21 109 -21
127 -60 259 -86 283 -10 10 -19 24 -19 32 0 25 -40 106 -49 100 -5 -3 -13 0
-17 6 -4 8 -3 9 4 5 7 -4 12 -3 12 3 0 5 -4 12 -10 16 -5 3 -7 13 -4 23 4 12
2 11 -7 -3 -7 -11 -17 -23 -23 -27 -8 -5 -7 -8 2 -8 6 0 12 -10 12 -22 0 -21
-2 -20 -16 7 -9 17 -23 53 -31 80 -8 28 -31 79 -50 114 -26 47 -31 63 -19 58
11 -4 15 -3 11 4 -4 6 -13 8 -20 6 -6 -3 -19 3 -28 13 -14 17 -14 19 1 23 10
3 6 5 -10 6 -65 3 -98 35 -83 81 7 22 24 21 77 -6z m-3642 -19 c7 -8 9 -23 4
-37 -4 -13 -7 -34 -5 -47 3 -25 -43 -81 -67 -81 -8 0 -12 -6 -8 -15 7 -18 -19
-45 -44 -45 -13 0 -17 5 -14 15 4 8 11 15 16 15 6 0 5 6 -2 15 -16 20 3 45 35
45 25 0 42 29 24 41 -9 5 -7 13 5 30 25 36 19 47 -9 16 -23 -24 -55 -37 -55
-22 0 18 38 60 65 71 38 17 40 17 55 -1z m-1248 -42 c0 -10 1 -24 1 -30 -1 -7
3 -13 7 -13 5 0 12 -10 16 -22 4 -13 19 -39 34 -58 30 -39 74 -140 60 -140
-15 0 -89 91 -101 124 -12 32 -74 81 -90 70 -24 -14 -4 -67 44 -119 24 -25 67
-109 67 -130 0 -11 -7 -15 -22 -13 -14 2 -35 25 -61 68 -22 35 -40 69 -41 75
-1 6 -12 24 -24 39 -12 16 -22 36 -22 44 0 17 103 122 120 122 5 0 11 -8 12
-17z m-2722 -22 c0 -6 -4 -13 -10 -16 -20 -12 -9 -33 19 -38 17 -4 32 -14 36
-26 8 -27 -11 -62 -30 -55 -10 4 -20 -5 -30 -30 -19 -46 -20 -43 19 -56 36
-11 49 -30 40 -54 -7 -19 -52 -27 -58 -10 -6 17 -19 17 -66 4 -41 -12 -81 -64
-78 -102 l2 -26 39 33 c22 19 53 37 71 40 17 4 41 14 54 22 18 11 27 12 37 3
8 -6 23 -9 35 -5 16 5 20 2 20 -18 0 -20 -4 -23 -24 -20 -15 3 -30 -2 -42 -15
-23 -23 -80 -52 -104 -52 -23 0 -80 -29 -80 -41 0 -5 -6 -9 -14 -9 -8 0 -22
-10 -31 -22 -13 -20 -17 -21 -26 -8 -12 19 -2 96 18 126 8 13 13 33 11 45 -3
21 8 32 45 43 12 4 17 14 15 28 -2 19 -9 23 -35 22 -22 -1 -33 3 -33 12 0 13
12 18 33 15 4 -1 18 -3 30 -5 58 -9 118 57 84 91 -12 12 -12 22 -4 51 6 21 14
39 17 42 4 3 9 13 13 23 7 18 27 24 27 8z m5775 -38 c6 -34 4 -40 -27 -66 -78
-66 -108 -96 -99 -102 18 -10 0 -36 -20 -30 -13 5 -19 2 -17 -7 2 -7 -4 -12
-12 -10 -8 2 -20 -4 -26 -13 -7 -9 -21 -17 -33 -18 -11 0 -18 -3 -16 -5 2 -3
-12 -20 -31 -38 -34 -34 -34 -34 -17 -61 17 -26 17 -26 -5 -21 -12 4 -22 2
-22 -3 0 -5 -4 -9 -10 -9 -5 0 -8 6 -6 13 1 6 1 9 -1 5 -3 -5 -11 -8 -19 -8
-18 0 -7 -28 14 -33 11 -3 8 -5 -8 -7 -14 -1 -28 -2 -31 -2 -3 1 -6 -6 -6 -13
0 -11 4 -12 13 -4 7 6 19 9 26 6 9 -4 8 -6 -3 -6 -21 -1 -51 -35 -42 -46 5 -4
2 -5 -5 -1 -7 4 -15 1 -18 -8 -3 -9 -10 -13 -15 -10 -12 7 -7 -19 5 -28 5 -3
15 -4 23 -1 11 4 11 8 1 21 -11 13 -10 15 4 9 12 -4 28 7 55 38 21 25 43 45
49 45 7 0 14 7 18 15 3 8 12 15 20 15 8 0 17 9 21 20 3 11 11 19 17 17 5 -1
15 7 21 17 18 29 90 96 104 96 5 0 17 11 27 25 24 33 36 17 26 -35 -4 -22 -3
-37 1 -34 13 8 5 -31 -9 -49 -9 -11 -10 -17 -2 -22 8 -5 7 -12 -4 -23 -8 -10
-18 -29 -21 -44 -8 -32 -11 -33 -31 -13 -23 23 -28 19 -43 -30 -7 -25 -24 -54
-37 -64 -13 -10 -21 -21 -19 -25 3 -3 2 -4 -1 -2 -3 3 -28 -9 -56 -26 -27 -17
-59 -30 -72 -30 -13 0 -30 -12 -43 -30 l-21 -30 -42 44 c-24 24 -40 35 -37 25
5 -13 2 -17 -11 -15 -9 2 -16 -2 -15 -9 2 -8 -4 -10 -14 -6 -11 5 -14 3 -8 -6
6 -10 2 -11 -16 -6 -14 4 -19 3 -12 -2 22 -15 46 -87 44 -130 -1 -31 3 -43 13
-43 19 0 76 -59 91 -95 14 -32 11 -47 -8 -39 -7 2 -17 -4 -24 -15 -10 -15 -9
-18 5 -17 31 2 22 -29 -17 -56 -63 -45 -85 -29 -34 24 15 15 21 28 15 28 -7 0
-15 -7 -18 -15 -4 -8 -15 -15 -25 -15 -16 0 -18 6 -15 33 6 42 15 67 35 92
l16 20 -25 -20 c-14 -11 -27 -22 -30 -25 -3 -3 -15 -13 -26 -23 -19 -16 -22
-16 -27 -3 -4 9 -1 15 4 13 6 -1 13 9 15 22 4 23 3 24 -14 8 -10 -9 -26 -17
-36 -17 -9 0 -14 -4 -11 -10 11 -18 -8 -11 -32 12 -27 26 -33 22 -38 -26 -2
-20 -8 -43 -15 -51 -6 -8 -9 -19 -5 -24 3 -6 -1 -21 -10 -34 -8 -13 -12 -27
-8 -30 3 -4 1 -7 -6 -7 -8 0 -7 -5 3 -16 9 -8 13 -21 9 -27 -4 -6 0 -8 10 -4
8 3 18 0 20 -7 3 -7 16 -12 29 -10 12 1 26 3 31 3 4 1 7 12 7 26 0 15 6 25 14
25 27 0 41 -32 40 -91 -1 -69 -20 -102 -116 -205 -65 -69 -264 -240 -308 -265
-14 -7 -41 -14 -60 -15 -19 -2 -62 -5 -95 -9 -42 -4 -55 -2 -45 5 8 5 11 10 5
10 -5 0 -21 3 -35 6 -24 5 -24 5 -6 -10 17 -14 14 -15 -38 -12 -31 2 -62 9
-69 15 -9 10 -6 10 16 2 16 -6 36 -11 45 -11 15 0 15 2 2 10 -13 8 -12 10 4
10 11 0 17 3 13 6 -3 3 -21 6 -39 6 -19 0 -45 8 -57 17 l-23 18 30 35 c23 26
29 41 25 59 -11 42 22 5 35 -40 12 -37 22 -45 73 -57 11 -2 18 5 21 20 3 17 1
23 -8 19 -7 -2 -15 5 -19 16 -3 11 -16 21 -28 23 -17 2 -22 10 -23 35 -1 20 2
30 8 27 14 -9 -1 39 -16 49 -7 6 -4 7 7 3 12 -4 17 0 17 15 0 14 -5 19 -14 16
-10 -4 -12 0 -9 14 3 10 1 19 -3 19 -5 0 -20 3 -33 7 -17 4 -22 3 -17 -5 10
-16 -16 -15 -34 1 -12 10 -12 9 -1 -5 11 -15 11 -18 -3 -18 -9 0 -16 -4 -16
-8 0 -5 -11 -15 -25 -22 -14 -7 -25 -19 -25 -27 0 -7 -7 -13 -15 -13 -26 0
-17 -17 28 -51 53 -42 60 -52 42 -62 -9 -5 -15 -23 -15 -42 0 -19 -3 -35 -7
-35 -12 0 -38 19 -38 27 -2 26 -19 53 -33 54 -10 0 -12 3 -5 5 8 4 6 11 -8 25
-20 20 -27 45 -9 34 6 -3 10 -1 10 5 0 7 -6 10 -14 7 -24 -9 -64 38 -61 72 1
17 -1 31 -4 31 -4 0 -7 10 -7 23 0 12 -10 44 -22 70 -18 40 -21 58 -14 95 6
40 11 47 32 50 73 8 220 57 270 90 30 20 60 37 65 38 27 3 29 5 16 13 -10 6
-1 17 35 42 27 18 81 58 119 89 39 31 93 69 120 84 28 15 54 32 59 36 5 5 15
6 22 3 14 -5 31 9 50 42 6 11 18 20 25 20 8 0 36 22 61 48 26 26 52 47 57 47
19 0 80 56 156 143 71 81 185 206 248 271 37 38 67 72 67 75 1 11 45 38 72 45
16 3 27 12 25 19 -1 6 4 11 11 9 8 -1 11 2 8 7 -9 13 42 51 69 51 18 0 24 -7
30 -37z m-2255 -186 c0 -79 -34 -134 -103 -167 l-39 -19 5 22 c3 12 11 52 17
88 11 61 14 68 48 87 54 32 72 29 72 -11z m2493 -9 c-2 -5 5 -8 16 -8 12 0 21
-4 21 -9 0 -4 -11 -7 -25 -6 -14 2 -23 -1 -20 -5 3 -5 13 -6 22 -3 11 4 14 2
9 -5 -6 -11 27 -36 36 -27 2 2 4 -18 3 -45 -1 -37 -6 -54 -20 -65 -15 -11 -16
-14 -5 -15 9 0 0 -14 -22 -35 -23 -23 -35 -43 -33 -55 2 -10 -3 -24 -11 -31
-8 -6 -14 -9 -15 -5 -5 30 0 48 16 60 17 12 18 17 6 28 -8 7 -11 8 -8 3 3 -6
-3 -16 -13 -23 -17 -10 -18 -9 -5 15 8 15 12 30 10 34 -3 4 3 6 13 5 12 -1 17
7 18 29 1 51 3 55 27 54 21 0 21 -1 2 -9 -19 -8 -19 -9 2 -9 12 -1 25 4 28 9
3 6 2 10 -4 10 -6 0 -9 6 -7 13 1 6 1 9 -1 5 -6 -11 -43 -10 -43 1 0 5 5 11
12 13 7 3 5 7 -6 11 -9 4 -15 3 -12 -2 3 -5 -1 -14 -9 -21 -10 -8 -12 -17 -6
-24 6 -7 6 -18 1 -25 -7 -12 -11 -11 -25 2 -9 10 -12 17 -6 17 10 0 8 31 -4
50 -3 6 1 13 10 16 13 5 14 9 4 15 -10 6 -10 11 -1 22 7 7 10 16 8 18 -2 2 6
4 19 4 13 0 21 -3 18 -7z m-3281 -540 c6 -13 13 -29 14 -35 3 -17 -53 -30
-146 -36 -41 -3 -111 -17 -155 -31 -43 -15 -101 -27 -127 -28 -26 0 -45 -4
-43 -9 3 -4 -7 -4 -22 0 -48 13 -139 -1 -127 -20 3 -5 -3 -6 -12 -2 -13 5 -15
3 -9 -8 5 -8 0 -6 -12 4 -13 11 -23 14 -27 8 -4 -6 -18 -6 -35 -1 -16 4 -32 6
-34 3 -3 -2 -15 0 -26 7 -14 7 -21 7 -21 0 0 -13 -50 -13 -51 0 -5 29 -3 35
11 36 8 0 23 -4 34 -9 10 -5 16 -5 13 0 -3 5 14 13 38 19 24 5 42 7 39 3 -6
-10 14 -5 56 13 24 12 41 13 59 7 17 -7 27 -6 33 3 6 10 8 10 8 -1 0 -9 4 -10
13 -4 26 22 188 49 335 57 12 0 22 4 22 9 0 4 15 7 33 8 17 0 48 7 67 14 49
19 58 18 72 -7z m8052 10 c-5 -7 -62 -35 -82 -39 -4 -1 -18 -9 -32 -19 -14 -9
-33 -16 -42 -15 -10 2 -18 -1 -18 -7 0 -6 -7 -8 -15 -4 -8 3 -15 1 -15 -4 0
-6 -3 -9 -7 -8 -9 3 -90 -27 -149 -53 -22 -11 -52 -20 -67 -21 -15 -1 -27 -6
-27 -11 0 -4 -4 -5 -10 -2 -5 3 -10 2 -10 -4 0 -17 -62 -44 -107 -46 -45 -2
-56 12 -28 35 8 7 12 16 9 21 -7 13 23 42 36 34 5 -3 10 0 10 7 0 9 3 9 10 -2
5 -8 10 -10 10 -5 0 6 5 3 11 -5 8 -11 12 -12 16 -3 3 9 10 10 24 3 16 -9 19
-7 19 11 0 12 3 19 7 16 3 -4 13 2 20 13 8 11 19 18 24 14 5 -3 17 0 25 7 12
10 13 9 8 -5 -5 -13 -2 -15 12 -10 11 4 25 14 32 22 8 11 12 12 12 3 0 -7 5
-9 10 -6 6 4 7 11 4 17 -4 7 -2 8 5 4 6 -4 23 2 37 13 14 11 32 17 40 14 8 -3
21 3 29 13 11 15 14 16 15 4 0 -12 2 -13 9 -1 5 8 14 10 21 6 9 -6 11 -4 5 5
-6 10 -4 11 11 5 10 -4 27 -7 37 -7 11 1 15 -4 10 -11 -4 -7 0 -6 10 2 9 7 15
16 13 20 -2 3 13 6 34 7 22 0 37 -3 34 -8z m-4534 -36 l48 -38 -23 -22 c-13
-12 -25 -22 -28 -22 -4 0 -17 -10 -30 -22 -68 -63 -100 -88 -113 -88 -8 0 -13
-3 -13 -7 4 -24 -4 -24 -33 3 -30 28 -30 17 0 -19 8 -9 12 -20 9 -23 -6 -7
-75 44 -98 72 -12 16 -12 17 4 11 12 -4 17 -1 17 9 0 11 6 14 16 10 8 -3 12
-2 9 4 -13 22 7 29 33 13 26 -16 26 -16 10 2 -16 17 -16 20 5 41 l22 23 25
-22 c14 -12 19 -15 13 -7 -15 16 -17 50 -4 50 6 0 13 -4 16 -10 3 -5 11 -10
18 -10 8 0 8 3 -1 12 -17 17 -15 31 2 25 10 -4 13 -1 9 9 -8 21 7 17 36 -8
l25 -23 -22 29 c-19 25 -22 46 -5 46 3 0 27 -17 53 -38z m-6421 -5 c6 -8 8
-16 6 -19 -8 -8 90 -19 108 -12 10 3 20 -2 27 -15 9 -18 6 -23 -21 -40 -18
-11 -36 -18 -41 -15 -4 3 -8 0 -8 -5 0 -17 -46 -13 -60 4 -7 9 -10 18 -7 22 4
3 2 12 -4 20 -9 10 -7 13 6 13 10 0 15 3 12 7 -4 3 -17 1 -30 -5 -12 -6 -35
-13 -51 -17 -26 -5 -28 -8 -21 -41 l6 -35 -38 7 c-21 3 -42 11 -48 17 -7 7 -5
7 5 2 13 -8 13 -6 2 8 -12 14 -9 21 23 52 21 19 32 35 24 35 -24 1 44 28 72
29 15 1 32 -5 38 -12z m6600 -173 c-34 -50 -47 -129 -23 -138 19 -7 18 -26 -2
-26 -8 0 -12 4 -9 10 3 6 -1 7 -9 4 -9 -3 -16 -10 -16 -15 0 -13 -56 -39 -65
-31 -5 4 -6 2 -2 -3 3 -6 -3 -17 -15 -24 -16 -10 -19 -10 -13 1 4 7 -2 2 -13
-11 -19 -23 -20 -23 -25 -5 -4 18 -5 17 -6 -2 -1 -25 -35 -59 -51 -49 -5 3 -7
11 -4 17 4 7 2 8 -5 4 -6 -4 -9 -11 -6 -16 3 -5 -10 -12 -30 -16 -19 -3 -32
-10 -29 -15 3 -5 -2 -6 -10 -3 -21 8 -20 18 1 35 14 12 16 12 8 0 -5 -9 -4
-12 3 -7 6 4 9 13 6 21 -6 15 3 24 91 100 33 28 100 87 149 132 50 45 95 82
99 82 4 1 -6 -20 -24 -45z m2013 -374 c26 -52 47 -102 47 -110 0 -8 -7 -2 -15
13 -11 21 -21 27 -35 24 -10 -3 -17 -1 -13 4 3 5 0 9 -6 9 -6 0 -9 4 -6 9 3 5
-4 11 -15 14 -12 3 -19 10 -16 15 3 4 -3 14 -13 22 -10 8 -17 17 -14 22 3 4
-2 8 -10 8 -9 0 -16 5 -16 10 0 18 -33 10 -88 -21 -30 -17 -56 -29 -58 -26 -6
5 128 94 151 100 49 12 59 4 107 -93z m-8128 -32 c-3 -4 1 -8 8 -8 8 0 15 -11
16 -25 1 -14 15 -51 30 -83 29 -56 42 -95 47 -140 3 -17 -4 -26 -21 -34 -15
-7 -28 -8 -33 -2 -4 5 -27 54 -51 109 -23 55 -49 109 -56 120 -20 28 -17 51 9
62 25 12 58 13 51 1z m7832 -135 c9 -38 23 -75 31 -84 7 -9 13 -31 12 -50 -1
-19 2 -44 6 -56 6 -17 1 -24 -24 -37 -16 -9 -35 -16 -41 -16 -6 0 -27 -11 -48
-24 -20 -14 -86 -39 -145 -58 -91 -27 -110 -30 -117 -18 -7 11 1 20 33 36 23
11 56 28 72 37 33 18 27 21 -47 17 -46 -2 -44 15 8 48 19 12 32 27 29 32 -4 6
1 7 11 3 12 -4 15 -3 10 5 -4 7 -3 12 3 12 5 0 12 14 16 30 4 17 12 30 20 30
7 0 18 13 25 29 11 28 107 131 121 131 4 0 15 -30 25 -67z m-5516 -3 c0 -5 -5
-12 -12 -16 -7 -5 -8 -3 -3 6 6 9 4 11 -4 6 -7 -5 -10 -13 -8 -20 6 -15 -65
-16 -75 -1 -4 6 -8 2 -8 -8 0 -10 -4 -16 -9 -13 -5 3 -11 0 -14 -7 -3 -7 -22
-14 -43 -15 -69 -5 -79 -7 -86 -17 -5 -6 -8 -5 -8 3 0 6 -5 12 -11 12 -5 0 -7
-4 -4 -10 3 -5 1 -11 -4 -11 -6 -1 -16 -2 -21 -3 -6 0 -14 -6 -18 -12 -4 -6
-26 -11 -49 -11 -39 0 -43 2 -43 23 0 13 9 28 20 34 11 6 20 9 20 7 0 -2 37 5
83 15 82 19 108 23 180 32 21 2 41 6 43 9 9 9 74 5 74 -3z m-847 -252 c10 -18
28 -51 42 -73 36 -59 33 -75 -13 -75 -26 0 -45 7 -57 20 -11 12 -31 20 -51 20
-27 0 -35 6 -48 32 -18 36 -17 39 44 82 47 33 63 32 83 -6z m6224 -239 c7 -7
23 -7 53 1 66 18 130 -2 130 -41 0 -22 -17 -34 -33 -21 -13 10 -87 4 -87 -7 0
-4 25 -20 55 -34 30 -15 80 -39 111 -54 103 -50 150 -113 133 -178 -10 -35 -9
-36 54 -63 l48 -21 8 22 c8 20 10 18 29 -23 28 -63 43 -115 38 -131 -2 -8 -12
-40 -22 -72 -15 -48 -16 -63 -6 -90 11 -28 10 -35 -8 -59 -11 -16 -17 -34 -13
-44 5 -14 8 -13 19 7 l13 24 1 -30 c0 -17 -7 -41 -16 -53 -20 -28 -39 -29 -24
-1 15 27 8 32 -23 18 -34 -15 -43 -49 -14 -49 18 -1 15 -4 -13 -19 -48 -26
-185 -71 -214 -71 -13 0 -53 -9 -87 -20 -73 -22 -109 -18 -102 11 3 10 12 19
20 19 8 0 12 -4 9 -9 -3 -5 1 -11 9 -15 20 -7 19 8 0 24 -12 10 -27 11 -68 2
-77 -17 -136 -23 -112 -13 18 8 19 9 3 16 -10 4 -15 11 -12 16 3 5 -1 6 -9 3
-7 -2 -26 0 -41 6 -23 8 -26 13 -16 25 6 8 9 18 6 23 -11 18 64 41 244 78 133
28 229 60 298 100 l44 26 -29 30 c-15 16 -48 40 -73 53 -25 13 -58 37 -74 54
-16 17 -34 28 -39 24 -6 -3 -7 -1 -3 6 9 13 -16 43 -153 186 -99 102 -99 97
-1 -10 89 -97 140 -159 135 -164 -3 -2 -11 1 -17 7 -15 15 -134 16 -143 2 -3
-5 -23 -10 -44 -10 -21 0 -62 -5 -91 -10 -29 -6 -55 -8 -58 -5 -7 7 19 35 28
30 5 -3 32 15 61 40 29 25 63 45 76 45 21 0 20 -3 -15 -34 l-37 -34 70 4 c39
2 75 5 80 5 6 1 19 -2 30 -7 18 -7 17 -5 -5 25 -14 18 -52 63 -85 99 -55 61
-140 168 -159 200 -13 23 -25 72 -17 72 5 0 16 -20 25 -45 10 -25 21 -47 25
-49 10 -7 -11 73 -27 101 -18 33 -15 37 11 11 12 -13 17 -17 10 -8 -6 8 -15
27 -18 43 -6 24 -4 27 16 27 19 0 21 -2 9 -10 -13 -8 -13 -10 2 -10 9 0 20 -9
23 -20 3 -11 11 -20 16 -20 6 0 8 -9 4 -20 -10 -30 49 -55 109 -46 45 7 59 19
33 29 -6 2 -38 25 -69 51 -31 25 -67 46 -80 46 -18 0 -20 2 -8 10 20 13 63 13
77 -1z m-7679 -135 c-16 -58 -7 -126 20 -148 13 -10 21 -24 18 -32 -3 -7 0
-11 7 -9 7 3 23 -4 36 -14 20 -15 23 -24 17 -55 -4 -20 -11 -34 -17 -31 -5 4
-9 2 -9 -4 0 -5 6 -12 13 -14 6 -3 -1 -6 -17 -6 -27 -1 -28 -3 -23 -33 4 -18
9 -44 13 -58 14 -53 -14 -3 -34 60 -50 155 -66 298 -40 355 17 37 28 30 16
-11z m8838 -99 c36 -11 66 -30 108 -71 l58 -57 34 17 c49 23 96 21 122 -6 29
-32 49 -113 32 -133 -13 -16 -45 -21 -35 -6 3 5 -4 35 -16 66 -25 67 -52 85
-103 67 -44 -16 -83 -15 -93 2 -14 24 -78 56 -102 51 -17 -3 -21 0 -17 10 4
12 1 12 -20 3 -22 -10 -24 -16 -19 -50 4 -25 3 -38 -4 -38 -6 0 -11 13 -11 29
0 43 -17 81 -36 81 -21 0 -166 -50 -179 -62 -6 -6 -6 -11 1 -16 20 -13 95
-115 89 -121 -3 -3 -10 1 -15 9 -15 26 -47 64 -87 105 l-38 39 30 12 c17 7 68
25 115 39 47 15 92 30 100 35 21 12 30 12 86 -5z m-1106 -292 c0 -5 -26 -23
-58 -41 l-57 -32 40 6 c22 4 57 15 78 26 31 16 37 16 37 3 0 -11 11 -15 41
-15 46 0 79 -14 79 -34 0 -8 -7 -16 -15 -20 -18 -6 -45 2 -45 15 0 16 -230 1
-291 -19 -46 -15 -56 -16 -56 -4 0 8 12 18 26 24 32 12 51 23 120 65 51 30
101 43 101 26z m-5832 -133 c13 -16 28 -30 34 -30 6 0 5 7 -3 18 -12 15 -12
15 1 5 8 -6 33 -10 54 -9 35 1 40 -2 53 -31 18 -45 28 -172 14 -205 -22 -58
-88 -43 -167 39 -30 32 -41 50 -34 58 5 6 8 44 6 83 -2 40 0 75 5 78 5 3 7 10
4 15 -15 23 14 6 33 -21z m5940 -106 c52 -14 15 -27 -183 -64 -56 -10 -125
-28 -154 -39 l-54 -20 29 30 c41 43 75 59 173 80 90 19 151 23 189 13z m-7179
-335 c1 -79 -28 -123 -87 -127 -23 -2 -47 2 -54 8 -7 6 -22 18 -33 26 -20 15
-20 15 1 5 12 -6 24 -7 28 -4 3 3 6 1 6 -6 0 -7 5 -9 10 -6 6 4 8 11 5 16 -4
5 0 9 8 9 22 0 39 49 43 120 4 81 11 110 32 134 16 17 18 15 29 -50 6 -38 12
-94 12 -125z m4261 -5828 c183 -30 307 -137 360 -310 36 -114 26 -268 -23
-366 -48 -97 -147 -183 -239 -206 -26 -7 -48 -15 -47 -18 0 -3 80 -107 179
-231 l178 -225 -196 -3 c-177 -2 -198 -1 -213 15 -18 20 -469 651 -469 657 0
2 82 5 183 8 170 3 186 6 232 28 75 38 90 65 90 163 0 94 -13 120 -80 159 -39
22 -48 23 -317 26 l-278 3 -1 105 c0 57 -1 118 -1 134 0 78 -33 70 295 70 160
0 317 -4 347 -9z m1810 -676 l-1 -685 -174 0 -175 0 -1 188 c-2 330 -8 644
-12 649 -3 2 -118 -185 -257 -417 l-253 -420 -209 0 c-114 0 -208 3 -208 6 0
4 78 119 173 258 95 138 305 443 467 679 l293 427 179 0 178 0 0 -685z m-559
-751 c27 -24 24 -75 -5 -103 -47 -44 -148 -22 -162 36 -21 80 99 128 167 67z
m-1547 10 c20 -20 20 -30 -1 -51 -14 -14 -16 -23 -8 -40 10 -23 25 -31 25 -14
0 5 9 7 20 4 18 -5 20 0 20 41 0 25 -4 46 -10 46 -5 0 -10 7 -10 15 0 11 12
15 50 15 38 0 50 -4 50 -15 0 -8 -4 -15 -10 -15 -5 0 -10 -20 -10 -45 0 -25 5
-45 10 -45 6 0 10 -7 10 -16 0 -12 -12 -15 -57 -14 -32 0 -70 -2 -84 -6 -30
-7 -59 16 -59 47 0 12 -7 19 -20 19 -11 0 -20 -7 -20 -15 0 -8 7 -15 15 -15 8
0 15 -7 15 -15 0 -11 -12 -15 -50 -15 -38 0 -50 4 -50 15 0 8 5 15 10 15 17 0
12 87 -6 94 -35 13 2 26 76 26 58 0 83 -4 94 -16z m246 1 c0 -8 -4 -15 -10
-15 -5 0 -10 -7 -10 -15 0 -8 3 -15 7 -15 12 0 43 33 43 47 0 8 12 13 35 13
24 0 35 -5 35 -15 0 -8 -6 -15 -13 -15 -8 0 -24 -11 -36 -24 l-22 -24 29 -21
c17 -11 42 -21 56 -21 24 0 26 3 26 45 0 25 -4 45 -10 45 -5 0 -10 7 -10 15 0
11 12 15 50 15 38 0 50 -4 50 -15 0 -8 -4 -15 -10 -15 -5 0 -10 -20 -10 -45 0
-25 5 -45 10 -45 6 0 10 -7 10 -15 0 -12 -16 -15 -82 -15 -72 0 -85 3 -115 26
-19 14 -37 23 -41 19 -4 -4 -1 -10 6 -12 6 -3 12 -11 12 -19 0 -10 -13 -14
-45 -14 -33 0 -45 4 -45 15 0 8 5 15 10 15 6 0 10 20 10 45 0 25 -4 45 -10 45
-5 0 -10 7 -10 15 0 11 12 15 45 15 33 0 45 -4 45 -15z m421 -45 c17 -33 36
-60 40 -60 5 0 9 -7 9 -15 0 -11 -12 -15 -46 -15 -41 0 -46 2 -41 20 4 17 0
20 -28 20 -28 0 -32 -3 -28 -20 5 -18 0 -20 -41 -20 -34 0 -46 4 -46 15 0 8 7
15 15 15 8 0 32 27 52 60 28 44 44 60 60 60 16 0 30 -15 54 -60z m237 48 c7
-7 12 -22 12 -34 0 -23 -41 -44 -86 -44 -15 0 -24 -6 -24 -15 0 -8 7 -15 15
-15 8 0 15 -7 15 -15 0 -12 -13 -15 -55 -15 -42 0 -55 3 -55 15 0 8 7 15 15
15 11 0 15 12 15 45 0 33 -4 45 -15 45 -8 0 -15 7 -15 15 0 12 16 15 83 15 51
0 88 -5 95 -12z m222 -18 c0 -23 -4 -30 -20 -30 -11 0 -20 7 -20 15 0 11 -11
15 -40 15 -29 0 -40 -4 -40 -15 0 -10 10 -15 30 -15 20 0 30 -5 30 -15 0 -10
-10 -15 -30 -15 -20 0 -30 -5 -30 -15 0 -11 11 -15 40 -15 29 0 40 4 40 15 0
8 9 15 20 15 16 0 20 -7 20 -30 l0 -30 -95 0 c-78 0 -95 3 -95 15 0 8 5 15 10
15 6 0 10 20 10 45 0 25 -4 45 -10 45 -5 0 -10 7 -10 15 0 12 17 15 95 15 l95
0 0 -30z m110 15 c0 -8 -4 -15 -10 -15 -5 0 -10 -7 -10 -15 0 -11 11 -15 40
-15 29 0 40 4 40 15 0 8 -7 15 -15 15 -8 0 -15 7 -15 15 0 12 13 15 55 15 42
0 55 -3 55 -15 0 -8 -7 -15 -15 -15 -11 0 -15 -12 -15 -45 0 -33 4 -45 15 -45
8 0 15 -7 15 -15 0 -12 -13 -15 -55 -15 -42 0 -55 3 -55 15 0 8 7 15 15 15 8
0 15 7 15 15 0 11 -11 15 -40 15 -29 0 -40 -4 -40 -15 0 -8 5 -15 10 -15 6 0
10 -7 10 -15 0 -11 -12 -15 -50 -15 -38 0 -50 4 -50 15 0 8 5 15 10 15 6 0 10
20 10 45 0 25 -4 45 -10 45 -5 0 -10 7 -10 15 0 11 12 15 50 15 38 0 50 -4 50
-15z m660 -25 c0 -33 3 -40 20 -40 28 0 26 -30 -2 -31 -13 0 -17 -3 -10 -6 6
-2 12 -11 12 -19 0 -10 -14 -14 -50 -14 -38 0 -50 4 -50 15 0 8 6 16 13 17 6
0 -8 4 -33 7 -29 4 -46 11 -47 21 -3 22 87 90 119 90 26 0 28 -3 28 -40z m195
15 c14 -13 25 -35 25 -48 0 -34 -34 -73 -69 -80 -38 -8 -101 10 -101 29 0 11
11 14 51 12 31 -2 53 1 56 8 2 7 -8 9 -28 6 -37 -5 -75 13 -82 40 -15 56 100
82 148 33z"/>
<path d="M4745 13540 c6 -9 -6 -14 -30 -11 -6 0 -32 -19 -58 -44 -45 -42 -56
-58 -39 -53 4 1 16 -2 27 -8 11 -6 43 -12 70 -13 28 -2 55 -7 61 -12 7 -5 25
-9 41 -7 16 1 34 -1 41 -6 7 -4 12 -2 12 3 0 6 12 11 28 11 15 0 36 7 46 15
16 12 17 15 4 15 -9 0 -18 5 -20 11 -2 7 -18 12 -36 13 -23 1 -32 6 -32 19 0
10 -8 17 -20 17 -11 0 -20 5 -20 11 0 6 -7 8 -16 5 -8 -3 -12 -2 -9 3 3 5 -5
17 -17 25 -25 18 -42 21 -33 6z"/>
<path d="M4553 12858 c1 -6 -7 -12 -17 -14 -11 -1 -32 -12 -47 -23 -16 -12
-32 -21 -37 -21 -5 0 -17 -9 -27 -20 -10 -11 -22 -17 -26 -14 -5 3 -6 -2 -3
-11 7 -17 32 -13 69 9 31 19 119 20 134 2 7 -8 10 -20 6 -26 -3 -5 -1 -10 4
-10 6 0 11 5 11 10 0 6 7 10 16 10 8 0 12 -5 9 -10 -3 -6 2 -13 12 -17 10 -3
21 -12 25 -19 4 -6 20 -15 34 -18 32 -8 47 9 33 36 -6 12 -6 18 1 18 5 0 10
-5 10 -11 0 -5 5 -7 12 -3 8 5 4 13 -12 26 -18 15 -25 16 -31 6 -7 -10 -9 -9
-9 4 0 11 -6 15 -19 11 -13 -3 -25 3 -36 21 -10 14 -24 26 -31 26 -8 0 -14 7
-14 16 0 8 -4 13 -9 9 -6 -3 -13 0 -18 7 -10 15 -43 20 -40 6z"/>
<path d="M4478 12709 c-70 -11 -77 -20 -27 -36 24 -8 63 -23 86 -34 24 -10 48
-19 55 -19 6 0 21 -9 33 -20 20 -19 21 -19 53 6 17 14 32 31 32 39 0 15 -89
64 -116 64 -11 0 -30 1 -44 3 -14 2 -46 1 -72 -3z"/>
<path d="M9051 9419 c-21 -8 -23 -12 -10 -23 8 -8 47 -31 88 -52 40 -21 79
-46 85 -56 6 -10 14 -18 19 -18 4 0 21 -10 37 -21 16 -12 36 -19 44 -16 21 8
21 66 0 96 -19 26 -123 95 -131 87 -4 -3 -1 -6 5 -6 7 0 12 -7 12 -15 0 -22
-35 -18 -51 5 -17 24 -65 33 -98 19z"/>
<path d="M9016 9298 c3 -4 10 -6 15 -3 5 3 6 0 3 -8 -6 -17 35 -52 86 -73 26
-11 31 -17 21 -23 -10 -7 16 -40 103 -132 65 -67 129 -131 142 -142 25 -19 25
-19 50 4 14 13 24 34 24 50 0 26 30 52 30 26 0 -7 5 -4 11 6 16 27 6 30 -34
11 -22 -11 -45 -14 -62 -10 -27 7 -165 137 -165 156 0 27 42 4 89 -50 49 -56
95 -90 121 -90 8 0 10 19 8 58 l-3 57 -64 32 c-55 27 -72 30 -117 26 -73 -8
-94 0 -166 60 -35 28 -71 53 -80 53 -10 1 -15 -3 -12 -8z"/>
<path d="M8563 16505 c-21 -15 -29 -69 -14 -108 8 -20 6 -28 -9 -42 -10 -9
-17 -25 -15 -35 3 -13 -1 -17 -12 -13 -12 5 -12 7 -2 14 16 9 -29 29 -67 29
-19 0 -24 -5 -25 -27 -1 -16 -3 -38 -4 -50 -1 -14 3 -23 12 -23 8 0 12 -4 9
-8 -3 -5 26 -19 65 -31 38 -13 72 -27 75 -32 10 -17 44 -9 66 16 14 16 32 25
52 25 17 0 27 4 21 8 -9 6 -14 19 -19 49 -1 7 -5 16 -9 19 -10 11 -8 99 3 128
8 23 5 30 -24 57 -36 36 -74 44 -103 24z"/>
<path d="M10098 16102 c-16 -2 -28 -10 -28 -18 0 -18 31 -54 47 -54 17 0 16
-35 -1 -49 -8 -7 -31 -14 -53 -17 -58 -8 -82 -23 -77 -48 7 -37 43 -55 109
-54 77 1 113 -9 120 -33 8 -23 40 -42 80 -45 17 -1 41 -6 54 -12 17 -6 32 -5
49 4 16 8 34 9 55 3 48 -14 57 -11 53 14 -3 12 -5 25 -5 29 -2 20 -53 59 -97
74 -135 45 -199 93 -189 143 8 45 -42 72 -117 63z"/>
<path d="M10603 15844 c-8 -4 -10 -19 -7 -44 4 -27 0 -46 -12 -65 -15 -23 -15
-28 -3 -36 8 -5 10 -9 6 -9 -4 0 1 -10 12 -22 11 -11 18 -25 15 -30 -3 -4 -1
-8 5 -8 5 0 17 -3 27 -7 11 -4 15 -3 11 4 -4 6 -2 13 4 15 11 4 32 109 31 153
-2 36 -52 64 -89 49z"/>
</g>
</svg>
